<?xml version="1.0" standalone="no"?>
<!DOCTYPE svg PUBLIC "-//W3C//DTD SVG 1.1//EN" "http://www.w3.org/Graphics/SVG/1.1/DTD/svg11.dtd" >
<svg xmlns="http://www.w3.org/2000/svg">
<metadata>Generated by IcoMoon</metadata>
<defs>
<font id="dpr-icomoon" horiz-adv-x="1024">
<font-face units-per-em="1024" ascent="960" descent="-64" />
<missing-glyph horiz-adv-x="1024" />
<glyph unicode="&#x20;" horiz-adv-x="512" d="" />
<glyph unicode="&#xe000;" glyph-name="user-female" d="M960.032 157.312l-278.497 132.064c37.152 18.624 182.256 24.528 194.256 57.28 0 0-57.344 88.016-71.344 202.336-5.44 44.368-14.752 102.592-24 184.592-15.008 133.008-126.88 226.416-268.191 226.416h-0.512c-141.312 0-253.184-93.408-268.176-226.4-9.248-82-18.56-140.224-24.001-184.592-14-114.336-71.344-202.336-71.344-202.336 12-32.752 157.088-38.656 194.256-57.28l-278.512-132.080s-63.968-22.464-63.968-75.472v-84.528c0-35.376 28.624-61.312 63.968-61.312h896.064c35.344 0 63.968 25.936 63.968 61.312v84.528c0 53.008-63.968 75.472-63.967 75.472zM63.999 0v81.84c0 3.408 12.096 11.601 21.935 15.345 2.128 0.752 3.44 1.344 5.44 2.319l278.496 132.064c22.128 10.464 36.32 32.688 36.593 57.151 0.256 24.464-13.44 46.976-35.313 57.935-21.68 10.88-50.336 16.256-95.248 24.032-10.656 1.872-25.216 4.496-39.344 7.313 18.32 41.104 38.56 98.593 46.528 163.633 1.968 16.192 4.496 34.416 7.313 54.592 4.848 34.336 10.848 77.872 16.752 130.224 11.168 98.864 95.28 169.553 204.592 169.553h0.512c109.312 0 193.439-70.688 204.592-169.568 5.904-52.336 11.904-95.888 16.752-130.224 2.816-20.176 5.345-38.399 7.313-54.592 7.968-65.024 28.224-122.513 46.527-163.633-14.128-2.816-28.688-5.44-39.344-7.313-44.912-7.776-73.568-13.152-95.248-24.032-21.872-10.976-35.568-33.472-35.313-57.936 0.288-24.464 14.464-46.688 36.592-57.151l278.496-132.064c2-0.976 3.312-1.567 5.439-2.319 9.84-3.744 20.496-11.937 21.937-15.345l0.032-81.824h-896.032z" />
<glyph unicode="&#xe001;" glyph-name="people" d="M746 124.72l-201.471 111.602c74.88 58.912 95.216 174.688 95.216 239.601v135.12c0 89.472-118.88 189.12-238.288 189.12-119.376 0-241.408-99.664-241.408-189.12v-135.12c0-59.024 24.976-178.433 100.624-239.089l-206.672-112.112s-54-24.064-54-54.064v-81.088c0-29.84 24.224-54.063 54-54.063h692c29.808 0 54.031 24.224 54.031 54.063v81.088c0 31.808-54.032 54.063-54.032 54.063zM736.033-0.495h-672.031v57.216c4.592 3.344 11.008 7.216 16.064 9.536 1.504 0.688 3.008 1.408 4.432 2.225l206.688 112.096c18.848 10.224 31.344 29.184 33.248 50.527s-7.008 42.256-23.712 55.664c-53.664 43.024-76.656 138.32-76.656 189.152v135.12c0 45.968 86.656 125.12 177.408 125.12 92.432 0 174.288-78.064 174.288-125.12v-135.12c0-50.128-15.568-145.84-70.784-189.28-16.912-13.312-26-34.224-24.224-55.664 1.808-21.44 14.256-40.528 33.12-50.849l201.472-111.6c1.776-0.976 4.032-2.031 5.904-2.848 4.72-2 10.527-5.344 14.783-8.288v-57.888zM969.97 284.064l-204.465 111.601c74.88 58.912 98.224 174.688 98.224 239.601v135.12c0 89.472-121.872 190.128-241.28 190.128-77.6 0-156.943-42.192-203.119-96.225 26.336-1.632 55.376-1.664 80.464-9.664 33.712 26.256 76.368 41.872 122.656 41.872 92.432 0 177.279-79.056 177.279-126.128v-135.12c0-50.128-18.56-145.84-73.775-189.28-16.912-13.312-26-34.224-24.224-55.664 1.808-21.44 14.256-40.528 33.12-50.849l204.464-111.6c1.776-0.976 4.032-2.031 5.904-2.848 4.72-2 10.527-5.344 14.783-8.288v-56.912h-129.184c19.504-14.72 25.408-35.775 32.977-63.999h106.192c29.808 0 54.031 24.224 54.031 54.063v80.096c-0.016 31.84-54.048 54.096-54.048 54.096z" />
<glyph unicode="&#xe005;" glyph-name="user2" d="M511.728 896c108.672 0 223.92-91.534 223.92-159.854v-159.92c0-61.552-25.6-179.312-94.256-233.376-17.504-13.776-26.592-35.681-23.968-57.809 2.624-22.16 16.592-41.313 36.848-50.625l278.496-132.064c2.176-0.992 26.688-5.104 26.688-39.345l0.032-62.464-895.488-0.048v64.944c0 25.44 19.088 33.425 26.72 36.944l281.024 132.624c20.16 9.248 34.065 28.32 36.769 50.32 2.72 22-6.16 43.84-23.456 57.712-66.481 53.376-97.456 170.704-97.456 233.185v159.92c0.016 66.848 116.416 159.855 224.128 159.854zM511.728 960.002c-141.312 0-288.127-117.938-288.127-223.857v-159.92c0-69.872 31.888-211.248 121.392-283.088l-281.040-132.64s-63.952-28.496-63.952-63.968v-96.032c0-35.344 28.64-63.968 63.951-63.968h895.552c35.344 0 63.968 28.624 63.968 63.968v96.032c0 37.6-63.968 63.968-63.968 63.968l-278.496 132.064c88.656 69.776 118.656 206.849 118.656 283.665v159.92c0 105.92-146.64 223.855-287.936 223.855v0z" />
<glyph unicode="&#xe007;" glyph-name="speedometer" d="M511.984 923.872c-281.968 0-511.345-229.408-511.345-511.376 0-177.152 89.68-339.185 239.903-433.408 14.944-9.472 34.689-4.88 44.097 10.096s4.88 34.72-10.096 44.096c-54.096 33.952-99.040 78.048-133.424 128.88l33.552 19.376c15.311 8.848 20.56 28.399 11.712 43.711-8.88 15.344-28.464 20.56-43.712 11.712l-33.6-19.392c-24.4 50.512-39.297 105.792-43.281 163.424h35.616c17.68 0 32 14.32 32 32s-14.32 32-32 32h-35.456c4.24 58.688 19.776 114.304 44.56 164.592l32.16-18.56c5.024-2.912 10.528-4.288 15.969-4.288 11.056 0 21.808 5.744 27.743 16 8.848 15.313 3.6 34.881-11.712 43.713l-31.84 18.368c32.112 46.832 72.864 87.296 119.984 119.023l18.016-31.2c5.936-10.288 16.688-16 27.743-16 5.44 0 10.944 1.376 15.969 4.288 15.312 8.848 20.56 28.399 11.712 43.712l-17.952 31.072c49.328 23.792 103.68 38.656 160.976 42.816v-39.872c0-17.68 14.32-32 32-32s32 14.32 32 32v40c58.592-4.080 114.128-19.392 164.384-43.951l-17.36-30.048c-8.848-15.312-3.6-34.88 11.712-43.712 5.024-2.912 10.528-4.288 15.969-4.288 11.056 0 21.808 5.712 27.743 16l17.28 29.936c46.688-31.776 87.072-72.144 118.88-118.816l-29.968-17.312c-15.312-8.848-20.56-28.399-11.712-43.711 5.936-10.288 16.688-16 27.743-16 5.44 0 10.944 1.376 15.969 4.288l30.128 17.392c24.592-50.273 39.952-105.824 44.048-164.433h-35.136c-17.68 0-32-14.32-32-32s14.32-32 32-32h35.12c-4.048-56.88-18.592-111.439-42.496-161.312l-31.68 18.288c-15.28 8.848-34.912 3.567-43.712-11.713-8.848-15.312-3.6-34.88 11.712-43.712l31.776-18.352c-35.103-52.24-81.439-97.393-137.359-131.824-15.056-9.28-19.712-29.008-10.464-44.032 6.064-9.808 16.528-15.216 27.28-15.216 5.712 0 11.536 1.536 16.752 4.752 152.464 93.904 243.472 256.784 243.472 435.632 0 281.952-229.408 511.36-511.376 511.36zM748.111 512.272c15.296 8.848 20.544 28.398 11.712 43.71-8.832 15.296-28.416 20.544-43.712 11.696l-173.824-100.352c-9.28 5.248-19.856 8.496-31.28 8.496-35.28 0-63.84-28.592-63.84-63.808 0-35.248 28.576-63.84 63.84-63.84 35.28 0 63.84 28.592 63.84 63.84 0 0.064-0.016 0.145-0.016 0.209z" />
<glyph unicode="&#xe025;" glyph-name="credit-card" d="M928.144 784h-832.288c-53.024 0-96-42.976-96-96v-480c0-53.024 42.976-96 96-96h832.288c53.024 0 96 42.976 96 96v480c0 53.024-42.976 96-96 96zM95.856 720h832.288c17.664 0 32-14.336 32-32v-64h-896.288v64c0 17.664 14.352 32 32 32zM928.144 176h-832.288c-17.664 0-32 14.336-32 32v288h896.288v-288c0-17.664-14.352-32-32-32z" />
<glyph unicode="&#xe032;" glyph-name="picture" d="M960 880.096h-896c-35.184 0-64-28.816-64-64v-736.192c0-35.184 28.816-64 64-64h896c35.184 0 64 28.816 64 64v736.192c0 35.184-28.816 64-64 64zM960 79.903l-895.999 0.001v188.56l256.848 248.912 264.784-264.496c10.912-13.248 30.336-11.568 44.128-1.12l116.88 105.808 210.8-216.384c0.8-0.8 1.695-1.392 2.56-2.080v-59.2zM960.001 230.208l-188.031 192.416c-11.408 11.248-29.28 12.4-41.937 2.752l-120.56-105.024-264.944 262.080c-5.664 6.848-13.84 11.023-22.688 11.6-8.816 0.32-17.505-2.56-23.969-8.624l-233.872-227.6v458.288h896v-585.888zM736.002 559.872c35.28 0 63.84 28.608 63.84 63.841 0 35.216-28.56 63.824-63.84 63.824s-63.84-28.608-63.84-63.824c0-35.232 28.56-63.841 63.84-63.841z" />
<glyph unicode="&#xe033;" glyph-name="map" d="M993.184 824.992l-320.961 133.069-319.44-126.432-321.968 126.368c-2.752 0.816-5.439 1.12-7.968 1.12-13.136 0.064-22.848-9.743-22.848-24.495v-830c0-17.568 13.872-35.872 30.816-40.56l322.336-127.184 319.008 129.504 321.024-126.128c2.752-0.752 5.44-1.12 7.969-1.12 13.12 0 22.848 9.744 22.848 24.496v820.736c0 17.568-13.872 35.889-30.816 40.625zM383.999 778.861l256 100.304v-761.504l-256-101.184v762.384zM63.999 873.309l256-94.577v-761.76l-256 104.272v752.064zM959.999 21.995l-256 96.384v759.824l256-110.384v-745.824z" />
<glyph unicode="&#xe035;" glyph-name="handbag" d="M1022.74 17.36l-83.407 503.777c-7.44 65.312-66.977 118.432-132.721 118.432h-70.656v85.28c0 130.16-92.848 236.032-222.976 236.032-130.096 0-224.943-105.872-224.943-236.032v-85.28h-76.672c-65.744 0-125.28-53.12-132.528-117.056l-77.28-504.16c-2.976-26.56 2.225-47.504 15.408-62.288 12.432-13.904 30.527-20.977 53.743-20.977h873.568c32.912 0 51.776 13.216 61.841 24.32 9.216 10.208 19.648 28.144 16.623 57.951zM352.049 724.865c0 94.848 66.127 172.031 160.943 172.031s158.977-77.184 158.977-172.031v-85.28h-319.92zM947.168-0.446l-872.498-0.449c-5.504 0-11.008 2.944-9.712 10.688l77.248 504.096c3.84 33.44 35.504 61.681 69.152 61.681h76.689v-72.928c-19.072-11.072-32.048-31.488-32.048-55.137 0-35.344 28.656-64 64-64s64 28.656 64 64c0 23.616-12.928 44-31.952 55.088v72.992h319.904v-72.992c-19.008-11.088-31.952-31.488-31.952-55.088 0-35.344 28.656-64 64-64s64 28.656 64 64c0 23.648-12.976 44.065-32.048 55.152v72.928h70.656c33.664 0 65.313-28.256 69.408-63.439l83.344-503.28c0.4-4.096-2.815-9.312-12.191-9.312z" />
<glyph unicode="&#xe037;" glyph-name="globe2" d="M1025.020 448c0 272.016-213.663 495.104-482.319 511.023-5.536 0.608-11.088 1.009-16.72 1.009-1.664 0-3.328-0.176-4.992-0.224-2.992 0.048-5.968 0.224-8.992 0.224-282.88 0-513.023-229.696-513.023-512.032s230.144-512.032 513.023-512.032c3.024 0 6 0.176 9.008 0.24 1.664-0.064 3.328-0.24 4.992-0.24 5.632 0 11.184 0.4 16.72 1.009 268.64 15.92 482.304 238.976 482.303 511.023zM929.569 283.168c-17.632 5.12-61.921 16.239-140.064 25.392 6.464 44.192 10 90.896 10 139.44 0 38.256-2.208 75.344-6.288 111.008 99.008 11.824 142.384 26.721 145.296 27.745l-11.92 33.584c22.24-53.088 34.561-111.296 34.561-172.336 0-58.192-11.28-113.761-31.584-164.833zM285.488 447.999c0 35.808 2.369 70.769 6.705 104.401 51.888-4.080 113.936-7.088 186.863-7.792v-222.064c-70.992-0.688-131.664-3.568-182.688-7.473-7.040 42.192-10.88 86.88-10.88 132.928zM542.945 891.777c78.464-22.736 145.648-131.695 175.744-276.111-48.368-3.856-106.624-6.673-175.744-7.329v283.44zM479.059 890.994v-282.624c-68.368 0.688-126.88 3.473-176.063 7.232 30.704 142.608 98.432 250.752 176.063 275.392zM479.059 258.771l0.001-253.743c-72.4 22.976-136.192 118.575-169.36 247.023 47.76 3.504 104.096 6.063 169.359 6.72zM542.947 4.228l-0.001 254.561c65.952-0.624 122.064-3.28 169.217-6.929-32.608-130.128-96-226.416-169.216-247.632zM542.946 322.548l0.001 222.032c73.312 0.688 134.991 3.776 186.191 8 4.208-33.696 6.496-68.704 6.496-104.592 0-46.128-3.712-90.864-10.528-133.12-50.416 4.080-110.8 7.008-182.16 7.68zM914.804 646.068c-9.664-3.008-50.063-14.481-131.023-24.032-18.048 95.952-50.672 177.968-93.12 237.168 97.536-42.384 177.136-118.304 224.144-213.136zM358.82 869.411c-52.208-59.952-94.832-146.161-118.096-248.113-72.481 7.856-115.921 17.089-133.312 21.281 50.72 104.64 141.040 186.752 251.408 226.832zM83.637 582.818c12.32-3.344 58.913-14.941 145.553-24.525-4.96-35.44-7.68-72.305-7.68-110.305 0-48.272 4.368-94.721 12.24-138.688-74.4-8.032-120.16-17.648-140.688-22.608-19.44 50.096-30.208 104.447-30.208 161.312 0 46.96 7.312 92.256 20.783 134.815zM121.094 227.652c23.264 4.944 64.912 12.464 126.592 18.928 24.288-89.712 63.792-165.616 111.136-219.968-101.12 36.72-185.296 108.752-237.728 201.040v0zM690.662 36.82c38.224 53.264 68.48 125.024 87.296 208.801 63.408-7.28 103.216-15.792 123.296-20.864-48.016-83.072-121.855-149.393-210.592-187.937z" />
<glyph unicode="&#xe046;" glyph-name="call-out" d="M1000.35 188.384c-15.664 11.008-187.059 124.974-208.066 137.806-9.152 5.6-20.32 8.336-32.464 8.336-15.664 0-33.008-4.56-49.936-13.472-16.496-8.688-66.464-37.12-90.912-51.088-21.536 15.12-72.128 53.872-151.84 133.664-79.216 79.184-118.319 130.191-133.535 151.84 13.935 24.432 42.336 74.399 50.976 90.848 16.368 31.008 18.225 61.968 4.944 82.848-12.464 19.68-125.968 191.808-137.68 208-11.024 15.28-30.816 23.536-52.288 23.536-16.944 0-34.912-5.12-50.496-15.968-1.504-1.072-152.096-110.256-150.096-172.352 5.552-174.432 175.056-379.424 316.271-520.688s346.224-310.815 521.344-316.399h1.44c61.312 0 169.088 148.688 170.128 150.16 28.273 40.4 17.969 84.881-7.791 102.929zM956.141 122.733c-40.592-56.224-98.225-114.945-120.784-123.346-120.032 5.632-288.464 111.12-474.88 297.568-186.4 186.464-291.872 354.704-297.44 474.336 8.096 22.624 66.815 80.624 122.527 120.912 4.128 2.848 9.216 4.496 13.968 4.496 1.056 0 1.936-0.096 2.624-0.224 18-26.16 114.624-172.433 132.16-199.776 0.064-2.88-0.911-10.191-6.399-20.623-5.84-11.12-24.032-43.536-49.904-88.88l-20.128-35.28 23.344-33.248c17.408-24.72 58.816-78.464 140.624-160.288 82.16-82.192 135.712-123.473 160.336-140.784l33.248-23.344 35.28 20.16c34.192 19.536 75.504 42.944 88.944 50 10.784 5.68 18.16 6.128 20.16 6.128 0.32 0 0.593 0 0.816-0.032 24.496-15.376 173.937-114.592 200.32-132.688 0.432-2.56 0.031-8.128-4.816-15.088zM683.899 577.724l275.246 273.572-0.88-155.056c-0.288-12.944 9.968-24.192 22.912-23.889l16.416 0.016c12.96 0.32 23.648 8 23.921 20.928l0.656 231.008c0 0.224-0.864 0.384-0.864 0.607l1.264 11.712c0.128 6.496-1.376 12.288-5.6 16.432-4.128 4.176-9.936 6.72-16.384 6.544l-11.696-0.272c-0.224 0-0.399-0.096-0.655-0.128l-229.472 1.024c-12.928-0.288-23.616-10.977-23.92-23.921l-0.032-16.416c1.968-15.232 13.936-24.16 26.88-23.872l151.248-0.4-274.288-272.624c-12.496-12.496-12.496-32.769 0-45.265 12.496-12.481 32.752-12.481 45.248 0z" />
<glyph unicode="&#xe047;" glyph-name="call-in" d="M1000.35 188.384c-15.664 11.008-187.059 124.974-208.066 137.806-9.152 5.6-20.32 8.336-32.464 8.336-15.664 0-33.008-4.56-49.936-13.472-16.496-8.688-66.464-37.12-90.912-51.088-21.536 15.12-72.128 53.872-151.84 133.664-79.216 79.184-118.319 130.191-133.535 151.84 13.935 24.432 42.336 74.399 50.976 90.848 16.368 31.008 18.225 61.968 4.944 82.848-12.464 19.68-125.968 191.808-137.68 208-11.024 15.28-30.816 23.536-52.288 23.536-16.944 0-34.912-5.12-50.496-15.968-1.504-1.072-152.096-110.256-150.096-172.352 5.552-174.432 175.056-379.424 316.271-520.688s346.224-310.815 521.344-316.399h1.44c61.312 0 169.088 148.688 170.128 150.16 28.273 40.4 17.969 84.881-7.791 102.929zM956.141 122.733c-40.592-56.224-98.225-114.945-120.784-123.346-120.032 5.632-288.464 111.12-474.88 297.568-186.4 186.464-291.872 354.704-297.44 474.336 8.096 22.624 66.815 80.624 122.527 120.912 4.128 2.848 9.216 4.496 13.968 4.496 1.056 0 1.936-0.096 2.624-0.224 18-26.16 114.624-172.433 132.16-199.776 0.064-2.88-0.911-10.191-6.399-20.623-5.84-11.12-24.032-43.536-49.904-88.88l-20.128-35.28 23.344-33.248c17.408-24.72 58.816-78.464 140.624-160.288 82.16-82.192 135.712-123.473 160.336-140.784l33.248-23.344 35.28 20.16c34.192 19.536 75.504 42.944 88.944 50 10.784 5.68 18.16 6.128 20.16 6.128 0.32 0 0.593 0 0.816-0.032 24.496-15.376 173.937-114.592 200.32-132.688 0.432-2.56 0.031-8.128-4.816-15.088zM643.836 583.483c4.128-4.176 9.938-6.722 16.386-6.546l11.712 0.272c0.224 0 0.384 0.096 0.64 0.111l229.504-1.008c12.912 0.304 23.616 10.992 23.92 23.937l0.016 16.416c-1.952 15.232-13.937 24.16-26.864 23.872l-151.504 0.4 261.952 261.6c12.496 12.496 12.496 32.769 0 45.265-12.496 12.481-32.752 12.481-45.248 0.001l-262.672-262.32 0.88 154.832c0.288 12.928-9.968 24.191-22.895 23.888l-16.416-0.016c-12.96-0.32-23.664-8.017-23.937-20.944l-0.656-231.008c0-0.224 0.88-0.384 0.88-0.607l-1.28-11.712c-0.128-6.496 1.392-12.273 5.584-16.433z" />
<glyph unicode="&#xe048;" glyph-name="call-end" d="M961.696 760.448c0-1.056-0.097-1.935-0.225-2.623-26.16-18-172.433-114.624-199.776-132.16-2.88-0.064-10.191 0.911-20.623 6.399-11.12 5.84-43.536 24.032-88.88 49.904l-35.28 20.128-33.248-23.344c-24.72-17.408-78.464-58.816-160.288-140.624-82.176-82.16-123.456-135.712-140.768-160.336l-23.344-33.248 20.16-35.28c19.536-34.192 42.944-75.504 50-88.944 5.68-10.784 6.128-18.16 6.128-20.16 0-0.32 0-0.593-0.032-0.816-15.36-24.496-114.593-173.937-132.673-200.32-2.56-0.432-8.128-0.031-15.088 4.816-56.256 40.608-114.96 98.24-123.376 120.8 5.632 120.032 111.12 288.464 297.568 474.88 186.464 186.4 354.72 291.872 474.352 297.44 22.624-8.096 80.624-66.815 120.912-122.527 2.832-4.128 4.48-9.232 4.481-13.985zM1023.7 760.449c0 16.944-5.121 34.914-15.969 50.498-1.056 1.504-108.256 152.096-170.336 150.096-174.432-5.552-379.439-175.056-520.703-316.271-141.232-141.216-310.801-346.224-316.385-521.344v-1.44c0-61.312 148.672-169.088 150.144-170.128 40.4-28.288 84.881-17.968 102.945 7.776 11.008 15.664 124.976 187.056 137.808 208.063 5.6 9.152 8.336 20.32 8.336 32.464 0 15.664-4.576 33.008-13.473 49.936-8.688 16.496-37.119 66.464-51.087 90.912 15.12 21.536 53.872 72.128 133.664 151.84 79.184 79.216 130.191 118.319 151.84 133.535 24.432-13.936 74.399-42.336 90.848-50.976 31.008-16.368 61.968-18.225 82.848-4.944 19.68 12.464 189.808 125.968 206 137.68 15.28 11.056 23.52 30.848 23.52 52.303z" />
<glyph unicode="&#xe04d;" glyph-name="basket-loaded" d="M1015.66 676c-5.968 8.464-15.663 13.502-25.999 13.502h-99.744l-205.136 174.832c-24.976 24.976-65.519 25.008-90.495 0l-201.648-174.832h-82.096l-51.408 177.28c-20.16 69.808-68.065 77.344-87.713 77.344h-137.088c-17.568 0-31.776-14.224-31.776-31.775s14.224-31.775 31.775-31.775h137.056c4.336 0 17.568 0 26.593-31.184l176.848-649.936c3.84-13.712 16.336-23.184 30.592-23.184h431.968c13.408 0 25.376 8.4 29.904 21.024l152.256 449.68c3.504 9.744 2.048 20.592-3.888 29.023zM639.537 819.070l152.032-129.584h-304.112zM815.025 239.807h-385.487l-101.152 386.128h616.096zM752.002 111.871c-44.192 0-80-35.808-80-80s35.808-80 80-80 80 35.808 80 80c0 44.192-35.808 80-80 80zM464.002 111.871c-44.192 0-80-35.808-80-80s35.808-80 80-80 80 35.808 80 80c0 44.192-35.808 80-80 80z" />
<glyph unicode="&#xe04e;" glyph-name="basket" d="M1015.66 676c-5.968 8.464-15.662 13.502-25.998 13.502h-679.136l-51.408 177.28c-20.16 69.808-68.065 77.344-87.713 77.344h-137.072c-17.568 0-31.776-14.224-31.776-31.775s14.224-31.775 31.775-31.775h137.056c4.336 0 17.568 0 26.593-31.184l176.848-649.936c3.84-13.712 16.336-23.184 30.592-23.184h431.968c13.408 0 25.376 8.4 29.904 21.024l152.256 449.68c3.504 9.744 2.048 20.592-3.888 29.023zM815.026 239.806h-385.487l-101.152 386.128h616.096zM752.003 111.87c-44.192 0-80-35.808-80-80s35.808-80 80-80 80 35.808 80 80c0 44.192-35.808 80-80 80zM464.003 111.87c-44.192 0-80-35.808-80-80s35.808-80 80-80 80 35.808 80 80c0 44.192-35.808 80-80 80z" />
<glyph unicode="&#xe04f;" glyph-name="bag1" d="M864 801.296h-191.185v61.376c0 52.944-43.056 96-96 96h-127.632c-52.944 0-96-43.056-96-96v-61.376h-193.184c-35.344 0-64-28.656-64-64v-735.968c0-35.344 28.656-64 64-64h704c35.344 0 64 28.656 64 64v735.968c0 35.344-28.656 64-64 64h0.001zM417.184 862.672c0 17.664 14.336 32 32 32h127.632c17.664 0 32-14.336 32-32v-61.376h-191.632v61.376zM864 1.328h-704v735.968h193.184v-65.84s-0.848-31.968 31.809-31.968c36 0 32.192 31.968 32.192 31.968v65.84h191.632v-65.84s-2.128-32.128 31.872-32.128c32 0 32.128 32.128 32.128 32.128v65.84h191.184v-735.968z" />
<glyph unicode="&#xe057;" glyph-name="size-fullscreen" d="M685.904 576.816l275.264 273.572-0.896-155.072c-0.288-12.928 9.968-24.176 22.912-23.888l16.416 0.016c12.944 0.304 23.648 8 23.921 20.928l0.672 231.008c0 0.224-0.88 0.399-0.88 0.623l1.264 11.712c0.128 6.496-1.392 12.288-5.584 16.432-4.144 4.176-9.951 6.72-16.399 6.544l-11.696-0.272c-0.224 0-0.399-0.080-0.64-0.112l-229.488 1.008c-12.928-0.288-23.632-10.977-23.92-23.921l-0.032-16.416c1.968-15.248 13.952-24.16 26.88-23.872l151.248-0.4-274.288-272.624c-12.496-12.496-12.496-32.752 0-45.264 12.496-12.481 32.752-12.481 45.247 0zM339.088 319.188l-275.263-272.72 0.88 154.224c0.304 12.944-9.969 24.192-22.897 23.904l-17.424-0.032c-12.96-0.32-23.648-8-23.921-20.944l-0.672-231.008c0-0.224 0.88-0.367 0.88-0.623l-1.264-11.68c-0.144-6.496 1.376-12.32 5.584-16.433 4.128-4.192 9.952-6.721 16.384-6.561l11.712 0.288c0.224 0 0.384 0.096 0.64 0.096l230.496-1.008c12.928 0.32 23.616 11.009 23.92 23.937l0.032 16.432c-1.968 15.216-13.952 24.16-26.88 23.872l-151.248 0.4 274.272 272.592c12.496 12.496 12.496 32.752 0 45.248s-32.736 12.512-45.232 0.016zM1024.21-27.371l-0.672 231.009c-0.288 12.944-10.992 20.624-23.92 20.944l-16.416 0.032c-12.944 0.288-23.185-10.976-22.912-23.903l0.896-155.072-275.28 273.552c-12.496 12.496-32.752 12.496-45.248 0s-12.496-32.752 0-45.248l274.272-272.592-151.232-0.4c-12.928 0.288-24.912-8.656-26.88-23.872l0.032-16.432c0.304-12.944 11.008-23.633 23.92-23.937l229.504 1.008c0.24 0 0.416-0.096 0.64-0.096l11.696-0.288c6.448-0.16 12.273 2.368 16.4 6.561 4.192 4.128 5.696 9.936 5.584 16.432l-1.264 11.68c0 0.256 0.88 0.399 0.88 0.623zM110.049 894.678l151.264 0.397c12.928-0.288 24.912 8.64 26.88 23.872l-0.032 16.432c-0.32 12.944-11.009 23.648-23.921 23.921l-230.512-0.992c-0.256 0.032-0.416 0.112-0.64 0.112l-11.712 0.272c-6.432 0.176-12.271-2.368-16.384-6.544-4.208-4.144-5.728-9.936-5.584-16.432l1.264-11.712c0-0.224-0.88-0.384-0.88-0.624l0.672-231.008c0.288-12.928 10.977-20.624 23.921-20.928l17.424-0.016c12.928-0.288 23.184 10.96 22.895 23.888l-0.88 154.224 275.264-272.72c12.481-12.496 32.753-12.496 45.249 0s12.496 32.769 0 45.265z" />
<glyph unicode="&#xe059;" glyph-name="shuffle" d="M402.304 454.144l39.264 55.248-134.304 183.28h-304.528v-64h271.488zM918.783 628.672l-77.536-69.535c-9.344-8.944-12.368-23.44-3.024-32.368l5.472-8.064c9.376-8.944 24.496-8.944 33.824 0l127.744 115.504c0.176 0.16 0.384 0.192 0.544 0.336l8.464 8.096c4.672 4.496 7.008 10.368 6.976 16.288 0.032 5.872-2.304 11.776-6.976 16.225l-8.464 8.096c-0.16 0.16-0.336 0.225-0.544 0.368l-129.728 118.432c-9.36 8.944-24.464 8.944-33.84 0l-5.472-8.064c-9.36-8.944-6.32-23.408 3.023-32.336l76.048-68.976h-231.76l-409.312-576h-271.488v-64h304.512l409.328 576zM1005.81 107.232c-0.16 0.16-0.337 0.226-0.545 0.369l-129.728 118.432c-9.36 8.944-24.464 8.944-33.84 0l-5.472-8.064c-9.36-8.944-6.32-23.408 3.023-32.336l76.336-69.232-199.008 0.272-114.432 177.008-39.28-55.248 120.656-185.76 234.944-0.288-77.216-69.248c-9.344-8.944-12.368-23.44-3.024-32.368l5.472-8.064c9.376-8.944 24.496-8.944 33.824 0l127.744 115.504c0.176 0.16 0.384 0.192 0.544 0.336l8.464 8.096c4.672 4.496 7.008 10.368 6.976 16.288 0.032 5.872-2.304 11.776-6.976 16.225z" />
<glyph unicode="&#xe065;" glyph-name="logout" d="M116.832 416.336h554.448c17.696 0 32 14.336 32 32s-14.304 32-32 32h-552.448l115.76 115.76c12.496 12.496 12.496 32.752 0 45.248s-32.752 12.496-45.248 0l-189.008-194 189.008-194c6.256-6.256 14.432-9.376 22.624-9.376s16.368 3.12 22.624 9.376c12.496 12.496 12.496 32.752 0 45.248zM959.664 960h-544.001c-35.36 0-64-28.656-64-64v-288h64.416v248.976c0 21.376 17.344 38.72 38.72 38.72h464.72c21.392 0 38.72-17.344 38.72-38.72l1.008-818.288c0-21.376-17.328-38.72-38.72-38.72h-465.712c-21.376 0-38.72 17.344-38.72 38.72v250.368l-64.416-0.080v-288.976c0-35.344 28.64-64 64-64h543.984c35.36 0 64.017 28.656 64.017 64v896c-0.016 35.344-28.672 64-64.015 64z" />
<glyph unicode="&#xe066;" glyph-name="login" d="M532.528 298.592c-12.512-12.496-12.513-32.752-0.001-45.248 6.256-6.256 14.432-9.376 22.624-9.376s16.368 3.12 22.624 9.376l189.008 194-189.008 194.016c-12.496 12.496-32.752 12.496-45.248 0-12.512-12.496-12.512-32.752 0-45.248l115.744-115.76h-616.432c-17.68 0-32-14.336-32-32s14.32-32 32-32h618.448zM960.159 960h-576c-35.36 0-64.017-28.656-64.017-64v-288h64.432v248.976c0 21.376 17.344 38.72 38.72 38.72h496.704c21.408 0 38.72-17.344 38.72-38.72l1.008-818.288c0-21.376-17.312-38.72-38.72-38.72h-497.696c-21.376 0-38.72 17.344-38.72 38.72v250.368l-64.432-0.080v-288.976c0-35.344 28.656-64 64.017-64h576c35.344 0 64 28.656 64 64v896c-0.016 35.344-28.672 64-64.016 64z" />
<glyph unicode="&#xe069;" glyph-name="home" d="M1016.7 446.64l-480.369 503.168c-6.032 6.304-14.368 9.84-23.088 9.84-8.704 0-17.040-3.552-23.088-9.84l-482.848-503.152c-12.24-12.752-11.809-32.992 0.943-45.248 12.752-12.224 32.992-11.872 45.248 0.944l43.008 44.832v-478.832c0-17.68 14.336-32 32-32h223.552c17.632 0 31.935 14.256 32 31.904l1.008 319.664h254.992v-319.568c0-17.68 14.32-32 32-32h223.472c17.68 0 32 14.32 32 32v478.992l42.992-45.040c6.288-6.528 14.688-9.84 23.089-9.84 7.968 0 15.968 2.944 22.16 8.944 12.736 12.224 13.152 32.48 0.929 45.231zM863.535 505.184v-504.831h-159.472v319.552c0 17.68-14.32 32-32 32h-318.88c-17.632 0-31.935-14.256-32-31.904l-1.008-319.664h-159.664v504.848c0 2.64-0.416 5.168-1.008 7.632l353.76 368.624 351.424-368.208c-0.688-2.592-1.152-5.264-1.152-8.048z" />
<glyph unicode="&#xe06c;" glyph-name="equalizer" d="M160.048 572.128v355.872c0 17.664-14.336 32-32 32s-32-14.336-32-32v-355.84c-55.328-14.256-96.4-64.448-96.4-124.16 0-59.728 41.072-109.903 96.4-124.176v-355.824c0-17.664 14.336-32 32-32s32 14.336 32 32v355.856c55.28 14.304 96.305 64.447 96.305 124.144 0 59.68-41.024 109.84-96.305 124.128zM128.416 383.968c-0.112 0-0.24 0.030-0.368 0.030-0.144 0-0.271-0.032-0.415-0.048-35.152 0.208-63.696 28.848-63.696 64.048 0 35.184 28.56 63.84 63.712 64.032 0.128 0 0.271-0.032 0.399-0.032s0.24 0.032 0.368 0.032c35.136-0.224 63.664-28.863 63.664-64.031 0-35.184-28.528-63.808-63.664-64.031zM544.064 380.126l-0.001 547.872c0 17.664-14.336 32-32 32s-32-14.336-32-32v-547.84c-55.328-14.273-96.4-64.433-96.4-124.16s41.072-109.903 96.4-124.176v-163.824c0-17.664 14.336-32 32-32s32 14.336 32 32v163.856c55.264 14.304 96.288 64.447 96.288 124.144-0.016 59.664-41.023 109.824-96.287 124.128zM512.415 191.966c-0.128 0-0.24 0.031-0.368 0.031-0.144 0-0.271-0.032-0.415-0.048-35.152 0.208-63.696 28.848-63.696 64.048 0 35.216 28.608 63.872 63.792 64.032 0.112 0 0.225-0.032 0.337-0.032 0.096 0 0.191 0.032 0.287 0.032 35.168-0.192 63.744-28.832 63.744-64.032 0-35.184-28.528-63.808-63.681-64.031zM928.063 764.125l-0.001 163.871c0 17.664-14.336 32-32 32-17.68 0-32-14.336-32-32v-163.84c-55.328-14.256-96.4-64.432-96.4-124.159s41.072-109.92 96.4-124.176v-547.824c0-17.664 14.32-32 32-32 17.664 0 32 14.336 32 32v547.856c55.264 14.304 96.288 64.447 96.288 124.144-0.016 59.664-41.023 109.824-96.287 124.128zM896.414 575.964c-0.128 0-0.239 0.031-0.352 0.031-0.144 0-0.287-0.032-0.415-0.032-35.152 0.192-63.712 28.832-63.712 64.032 0 35.184 28.56 63.84 63.695 64.032 0.144 0 0.287-0.032 0.415-0.032s0.24 0.032 0.353 0.032c35.136-0.24 63.664-28.864 63.664-64.032 0.032-35.184-28.496-63.808-63.649-64.031z" />
<glyph unicode="&#xe082;" glyph-name="close2" d="M512 960c-282.768 0-512-229.232-512-512 0-282.784 229.232-512 512-512 282.784 0 512 229.216 512 512 0 282.768-229.216 512-512 512zM512-1.008c-247.024 0-448 201.984-448 449.009s200.976 448 448 448 448-200.976 448-448-200.976-449.009-448-449.009zM693.008 629.008c-12.496 12.496-32.752 12.496-45.248 0l-135.76-135.76-135.76 135.76c-12.496 12.496-32.752 12.496-45.264 0-12.496-12.496-12.496-32.752 0-45.248l135.76-135.76-135.76-135.76c-12.496-12.481-12.496-32.769 0-45.249 12.496-12.496 32.752-12.496 45.264 0l135.76 135.76 135.76-135.76c12.496-12.496 32.752-12.496 45.248 0 12.496 12.481 12.496 32.769 0 45.249l-135.76 135.76 135.76 135.76c12.512 12.512 12.512 32.768 0 45.248z" />
<glyph unicode="&#xe083;" glyph-name="cloud-download" d="M763.024 700c-44.624 118.432-140.559 193.441-285.455 193.441-184.384 0-313.392-136.912-324.479-315.536-88.912-28.432-153.088-119.12-153.088-221.84 0-125.744 98.848-231.968 215.823-231.968h28.448c17.664 0 32 14.32 32 32s-14.336 32-32 32h-28.448c-82.304 0-152.832 76.912-152.832 167.968 0 80.464 56.416 153.056 127.184 165.216l29.040 5.008-2.592 29.344-0.24 0.368c0.016 155.872 102.607 273.44 261.184 273.44 127.104 0 198.513-62.624 231.553-169.44l6.832-22.032 23.072-0.496c118.864-2.496 223.088-98.944 223.088-218.784 0-109.056-72.273-230.592-181.713-230.592h-9.104c-17.664 0-32-14.32-32-32s14.336-32 32-32v0.096c160 4.224 252.24 157.088 252.24 294.496-0.032 147.728-115.792 265.743-260.512 281.312zM646.337 184.53c-8.944 9.344-23.407 9.345-32.335 0.001l-70.384-77.648v322.144c0 17.664-14.336 32-32 32s-32-14.336-32-32v-322.432l-68.112 75.936c-8.944 9.344-23.44 11.344-32.368 2l-8.064-4.416c-8.944-9.376-8.944-24.48 0-33.823l115.504-127.744c0.16-0.16 0.192-0.368 0.336-0.528l8.096-8.464c4.496-4.688 10.368-7.009 16.288-6.977 5.872-0.032 11.776 2.288 16.225 6.977l8.096 8.464c0.16 0.16 0.24 0.336 0.368 0.528l118.432 129.744c8.944 9.344 8.944 20.447 0 29.823z" />
<glyph unicode="&#xe084;" glyph-name="cloud-upload" d="M763.024 700.032c-44.624 118.432-140.559 193.441-285.471 193.441-184.384 0-313.392-136.912-324.479-315.536-88.897-28.432-153.072-119.12-153.072-221.84 0-125.744 98.848-231.968 215.823-231.968h92.448c17.664 0 32 14.336 32 32 0 17.68-14.336 32-32 32h-92.448c-82.304 0-152.832 76.912-152.832 167.968 0 80.464 56.416 153.056 127.184 165.216l29.040 5.008-2.576 29.328-0.24 0.368c0 155.872 102.576 273.44 261.152 273.44 127.104 0 198.513-62.624 231.537-169.44l6.848-22.032 23.056-0.496c118.88-2.496 223.104-98.944 223.104-218.769 0-109.056-72.273-230.592-181.696-230.592h-73.12c-17.664 0-32-14.336-32-32 0-17.68 14.336-32 32-32l72.88 0.096c160 4.224 243.344 157.071 243.344 294.495 0 147.712-115.76 265.744-260.479 281.312zM535.985 445.059c-0.176 0.192-0.241 0.352-0.354 0.512l-8.096 8.464c-4.432 4.688-10.336 7.009-16.24 6.977-5.904 0.048-11.776-2.288-16.288-6.976l-8.096-8.464c-0.16-0.16-0.192-0.353-0.336-0.513l-115.504-127.744c-8.944-9.344-8.944-24.464 0-33.84l8.064-5.472c8.944-9.344 23.44-6.319 32.368 3.024l68.112 75.935v-322.432c0-17.664 14.336-32 32-32s32 14.336 32 32v322.128l70.368-77.632c8.944-9.344 23.408-12.368 32.336-3.024l8.064 5.472c8.944 9.376 8.944 24.496 0 33.84z" />
<glyph unicode="&#xe087;" glyph-name="eye" d="M515.472 638.592c-106.032 0-192-85.968-192-192 0-106.016 85.968-192 192-192s192 85.968 192 192-85.968 192-192 192zM515.472 318.592c-70.576 0-129.473 58.816-129.473 129.393s57.424 128 128 128c70.592 0 128-57.424 128-128s-55.936-129.393-126.527-129.393zM1023.68 455.424c-0.368 1.616-0.207 3.325-0.688 4.909-0.208 0.672-0.624 1.056-0.864 1.647-0.336 0.912-0.256 1.984-0.72 2.864-93.072 213.104-293.664 335.76-507.424 335.76s-418.368-122.432-511.488-335.552c-0.4-0.896-0.336-1.824-0.656-2.849-0.224-0.624-0.688-0.976-0.896-1.567-0.496-1.616-0.304-3.296-0.607-4.928-0.592-2.88-1.136-5.68-1.136-8.592 0-2.944 0.544-5.664 1.136-8.592 0.32-1.6 0.112-3.344 0.608-4.88 0.208-0.72 0.672-1.023 0.896-1.68 0.336-0.88 0.256-1.968 0.656-2.848 93.136-213.056 295.744-333.712 509.504-333.712 213.776 0 416.336 120.4 509.44 333.505 0.464 0.912 0.368 1.872 0.72 2.88 0.224 0.56 0.655 0.976 0.848 1.6 0.496 1.568 0.336 3.28 0.688 4.912 0.56 2.864 1.088 5.664 1.088 8.624 0 2.816-0.528 5.601-1.104 8.497zM512 159.405c-181.296 0-359.743 95.568-447.423 287.681 86.848 191.472 267.68 289.504 449.424 289.504 181.68 0 358.496-98.144 445.376-289.712-86.816-191.408-265.633-287.473-447.377-287.473z" />
<glyph unicode="&#xe08a;" glyph-name="heart" d="M287.984 845.84c31.376 0 88.094-15.008 180.094-105.616l45.616-44.912 44.928 45.632c63.872 64.897 131.84 105.2 177.376 105.2 61.408 0 109.809-21.008 157.009-68.096 44.464-44.368 68.992-103.36 68.992-166.112 0.032-62.784-24.448-121.824-69.408-166.672-3.664-3.712-196.992-212.304-358.96-387.104-7.632-7.248-16.352-8.32-20.991-8.32-4.576 0-13.2 1.024-20.8 8.097-39.472 43.904-325.552 362-358.815 395.232-44.528 44.416-69.024 103.456-69.024 166.224 0.016 62.752 24.512 121.728 69.040 166.144 43.296 43.264 93.984 60.304 154.944 60.304zM287.982 909.84c-76.528 0-144-22.895-200.176-79.008-117.072-116.768-117.072-306.128 0-422.96 33.424-33.44 357.855-394.337 357.855-394.337 18.481-18.496 42.753-27.68 66.961-27.68 24.224 0 48.399 9.184 66.911 27.68 0 0 354.88 383.024 358.656 386.849 117.040 116.88 117.040 306.24 0 423.008-58.112 58-123.024 86.784-202.208 86.784-75.648 0-160-60.32-223.008-124.32-64.992 63.984-146.736 123.984-224.992 123.984v0z" />
<glyph unicode="&#xe090;" glyph-name="magnifier" d="M1014.64-9.040l-310.93 312.833c57.952 69.408 92.88 158.704 92.88 256.208 0 220.912-179.088 400-400 400s-400-179.088-400-400 179.088-400 400-400c100.368 0 192.048 37.056 262.288 98.144l310.496-312.448c12.496-12.496 32.769-12.496 45.265 0 12.48 12.496 12.48 32.752 0.001 45.264zM396.59 223.473c-185.856 0-336.528 150.672-336.528 336.528s150.672 336.528 336.528 336.528c185.856 0 336.528-150.672 336.528-336.528s-150.672-336.528-336.528-336.528z" />
<glyph unicode="&#xe091;" glyph-name="magnifier-add" d="M1014.62-9.040l-283.026 284.767c60.608 72.4 97.089 165.761 97.089 267.713 0 230.064-185.504 416.561-415.552 416.561s-416.544-186.496-416.544-416.544 186.496-416.544 416.544-416.544c105.008 0 200.672 38.96 273.696 103.072l282.528-284.304c12.496-12.496 32.769-12.496 45.249 0 12.512 12.512 12.512 32.768 0.016 45.279zM412.59 191.999c-193.552 0-352 158.448-352 352s158.448 352 352 352c193.552 0 352-158.448 352-352s-158.448-352-352-352zM572.59 575.999h-128v128c0 17.664-14.336 32-32 32s-32-14.336-32-32v-128h-128c-17.664 0-32-14.336-32-32s14.336-32 32-32h128v-128c0-17.664 14.336-32 32-32s32 14.336 32 32v128h128c17.664 0 32 14.336 32 32s-14.32 32-32 32z" />
<glyph unicode="&#xe092;" glyph-name="magnifier-remove" d="M1014.62-9.040l-283.026 284.767c60.608 72.4 97.089 165.761 97.089 267.713 0 230.064-185.504 416.561-415.552 416.561s-416.544-186.496-416.544-416.544 186.496-416.544 416.544-416.544c105.008 0 200.672 38.96 273.696 103.072l282.528-284.304c12.496-12.496 32.769-12.496 45.249 0 12.512 12.512 12.512 32.768 0.016 45.279zM412.59 191.999c-193.552 0-352 158.448-352 352s158.448 352 352 352c193.552 0 352-158.448 352-352s-158.448-352-352-352zM572.59 575.999h-320c-17.664 0-32-14.336-32-32s14.336-32 32-32h320c17.664 0 32 14.336 32 32s-14.32 32-32 32z" />
<glyph unicode="&#xe096;" glyph-name="location-pin" d="M515.664 960.368c-209.904 0-387.664-178.768-387.664-390.544 0-221.76 206.032-448.544 344.624-607.936 0.528-0.64 22.929-25.519 50.528-25.519h2.448c27.6 0 49.84 24.88 50.399 25.519 130.064 149.52 320 396.048 320 607.936 0 211.776-138.656 390.544-380.336 390.544zM528.496 4.816c-1.12-1.12-2.753-2.369-4.193-3.409-1.472 1.008-3.071 2.288-4.255 3.408l-16.736 19.248c-131.392 150.736-311.312 357.152-311.312 545.761 0 177.008 148.224 326.56 323.664 326.56 218.528 0 316.336-164 316.336-326.56 0-143.184-102.128-333.296-303.504-565.008zM513.119 766.592c-106.032 0-192-85.968-192-192s85.968-192 192-192 192 85.968 192 192-85.968 192-192 192zM513.119 446.592c-70.576 0-129.473 58.816-129.473 129.408 0 70.576 57.424 128 128 128 70.624 0 128-57.424 128-128 0.032-70.592-55.903-129.408-126.527-129.408z" />
<glyph unicode="&#xe098;" glyph-name="refresh" d="M497.408 61.44c-0.080 0.192-0.272 0.322-0.385 0.482l-91.92 143.664c-6.528 10.72-20.688 14.527-31.728 8.512l-8.192-5.040c-11.008-6-10.768-21.536-4.256-32.256l58.928-91.408c-5.024 1.104-10.097 2-15.057 3.296-103.184 26.992-190.495 96.832-239.535 191.6-46.336 89.519-55.040 191.695-24.512 287.743 30.512 96.048 99.775 174.464 189.295 220.784 15.248 7.888 21.2 26.64 13.313 41.856-7.872 15.264-26.64 21.231-41.856 13.327-104.272-53.952-184.4-145.28-219.969-257.152-35.552-111.856-25.424-230.881 28.544-335.137 57.136-110.336 158.832-191.664 279.024-223.136 1.36-0.352 2.784-0.56 4.16-0.911l-81.311-41.232c-11.008-6.032-14.656-19.632-8.128-30.352l3.152-8.176c6.56-10.72 17.84-14.527 28.815-8.512l148.832 76.208c0.192 0.128 0.385 0.096 0.577 0.224l9.984 5.456c5.52 3.024 9.168 7.969 10.624 13.505 1.52 5.52 0.815 11.663-2.448 16.991zM913.904 639.187c-57.056 110.304-155.586 191.63-275.762 223.118-8.56 2.24-17.312 3.984-26.048 5.712l79.824 40.481c11.008 6.032 17.567 19.632 11.039 30.368l-3.152 8.16c-6.56 10.736-20.752 14.528-31.727 8.528l-148.816-76.208c-0.176-0.112-0.384-0.080-0.576-0.208l-9.968-5.472c-5.536-3.040-9.168-7.968-10.624-13.504-1.52-5.52-0.815-11.648 2.465-16.976l5.92-9.712c0.096-0.192 0.271-0.305 0.384-0.497l91.92-143.648c6.512-10.736 20.688-14.528 31.712-8.513l7.216 5.024c11.008 6 11.727 21.536 5.231 32.24l-59.2 91.856c13.008-2 25.968-4.416 38.624-7.76 103.232-27.040 187.393-96.864 236.4-191.568 46.32-89.519 55.024-191.695 24.481-287.728-30.512-96.048-96.655-174.448-186.175-220.816-15.232-7.888-21.168-26.607-13.28-41.871 5.52-10.64 16.336-16.768 27.6-16.768 4.8 0 9.664 1.12 14.273 3.488 104.272 53.936 181.248 145.279 216.816 257.119 35.536 111.904 25.393 230.929-28.574 335.152z" />
<glyph unicode="&#xe099;" glyph-name="reload" d="M511.28 960c-255.808 0-463.92-208.126-463.92-463.934 0-240.448 185.296-441.536 423.568-462.096l-91.856-46.56c-11.344-6.224-18.096-20.224-11.376-31.279l3.248-8.4c6.752-11.056 21.376-14.976 32.688-8.783l153.312 78.496c0.192 0.128 0.4 0.096 0.593 0.224l10.288 5.632c5.68 3.12 9.439 8.224 10.943 13.903 1.568 5.68 0.849 12-2.527 17.504l-6.096 10c-0.096 0.192-0.288 0.32-0.4 0.496l-94.688 147.968c-6.72 11.056-21.312 14.976-32.688 8.783l-7.44-5.184c-11.344-6.192-12.096-22.192-5.376-33.217l55.872-86.672c-0.304 0.016-0.576 0.128-0.864 0.144-209.28 13.728-373.2 189.039-373.2 399.039 0 220.528 179.408 399.937 399.92 399.937 220.544 0 400.96-179.408 400.96-399.937 0-126.976-58.32-243.6-160-319.968-14.128-10.624-16.976-30.689-6.367-44.816 10.624-14.16 30.688-16.977 44.816-6.368 117.936 88.592 185.567 223.872 185.567 371.152-0.016 255.808-209.151 463.936-464.976 463.937z" />
<glyph unicode="&#xe600;" glyph-name="phone2" d="M262.2 923c37.4-51.6 82.002-118.197 133.602-199.598 13-22 11-48.4-5.8-79.4-6.4-13-22.601-42.6-48.4-89.199 28.4-40 71.601-89.2 129.801-147.2s106.601-101.4 145.2-129.801c46.4 27.2 76.2 43.8 89.2 50.399 16.8 9 33 13.6 48.4 13.6 11.6 0 22-2.6 31-7.8 59.4-36.2 126.601-80.8 201.4-133.6 14.2-10.4 22.2-24.601 24.2-42.601 2-18.2-3.6-37.4-16.399-58.2-6.4-9-16.801-22.2-31.001-39.8-14.2-17.4-35.601-39.4-64.001-65.801s-51.601-39.801-69.801-39.801h-2c-136.6 5.4-305 107.801-504.4 307.201-199.6 199.6-302 367.8-307.2 504.6 0 18 13.2 41.6 39.8 70.8 26.4 29 48.2 50 64.8 63 16.8 12.8 31 23.2 42.6 31 14.2 10.4 30.4 15.4 48.4 15.4 22.2 0 38.8-7.8 50.6-23.2zM198.202 882.402c-27.2-19.4-52.603-41.198-76.603-64.998-23.8-24-37.8-41.6-41.6-53.199 5.2-120.2 101-273.2 287.6-459.2s340-282.2 460-288.601c10.4 3.8 27.4 18 51.4 42.6s45.6 50.399 64.8 77.399c3.8 5.2 5.2 9.601 3.8 13.601-77.4 54.2-142 97.4-193.8 129.801-5.2 0-11.601-2-19.4-5.8-11.6-6.4-40.6-22.601-87.199-48.4l-33-19.4-33 21.4c-42.6 29.6-94.199 75.6-154.999 137.6-60.6 60.6-105.8 112.399-135.6 154.999l-23.2 31 19.4 34.8c25.8 46.4 42 75.601 48.4 87.2 3.8 7.8 5.8 14.2 5.8 19.4-46 73.4-88.6 138-127.399 193.6h-2c-5 0-9.6-1.4-13.399-3.801z" />
<glyph unicode="&#xe601;" glyph-name="menu" d="M27 766.4c-8.2 8.2-12.2 18.601-12.2 31.2s4 23 12.2 31.2 18.601 12.2 31.2 12.2h912.4c12.6 0 23-4 31.2-12.2s12.2-18.601 12.2-31.2-4-23-12.2-31.2-18.601-12.2-31.2-12.2h-912.4c-12.6 0-23 4-31.2 12.2zM1001.8 481.2c8.2-8.2 12.2-18.601 12.2-31.2s-4-23-12.2-31.2-18.601-12.2-31.2-12.2h-912.4c-12.6 0-23 4-31.2 12.2s-12.2 18.601-12.2 31.2 4 23 12.2 31.2 18.601 12.2 31.2 12.2h912.4c12.6 0 23-4 31.2-12.2zM1001.8 133.8c8.2-8.2 12.2-18.601 12.2-31.2s-4-23-12.2-31.2-18.601-12.2-31.2-12.2h-912.4c-12.6 0-23 4-31.2 12.2s-12.2 18.601-12.2 31.2 4 23 12.2 31.2 18.601 12.2 31.2 12.2h912.4c12.6 0 23-4.2 31.2-12.2z" />
<glyph unicode="&#xe604;" glyph-name="arrow-down" d="M8.2 684.6c0 8.6 3.4 17.401 10 24.001 13.2 13.2 34.8 13.2 48 0l451.8-451.8 445.2 445.2c13.2 13.2 34.8 13.2 48 0s13.2-34.8 0-48l-469.2-469.4c-13.2-13.2-34.8-13.2-48 0l-475.8 475.8c-6.8 6.8-10 15.399-10 24.199z" />
<glyph unicode="&#xe605;" glyph-name="arrow-left" d="M752.145 960c8.685 0 17.572-3.434 24.237-10.099 13.33-13.33 13.33-35.144 0-48.474l-456.256-456.458 449.591-449.591c13.33-13.33 13.33-35.144 0-48.474s-35.143-13.33-48.473 0l-473.827 473.827c-13.33 13.33-13.33 35.144 0 48.474l480.492 480.694c6.665 6.665 15.552 10.099 24.236 10.099z" />
<glyph unicode="&#xe606;" glyph-name="arrow-right" d="M271.653-63.192c-8.685 0-17.573 3.433-24.238 10.098-13.33 13.33-13.33 35.144 0 48.474l456.256 456.458-449.591 449.591c-13.33 13.33-13.33 35.144 0 48.474s35.144 13.33 48.474 0l473.827-473.827c13.33-13.33 13.33-35.143 0-48.473l-480.492-480.694c-6.665-6.665-15.552-10.099-24.236-10.099z" />
<glyph unicode="&#xe607;" glyph-name="arrow-up" d="M8.2 208.6c0-8.6 3.4-17.401 10-24.001 13.2-13.2 34.8-13.2 48 0l451.8 451.8 445.2-445.2c13.2-13.2 34.8-13.2 48 0s13.2 34.8 0 48l-469.2 469.4c-13.2 13.2-34.8 13.2-48 0l-475.8-475.8c-6.8-6.8-10-15.399-10-24.199z" />
<glyph unicode="&#xe900;" glyph-name="calendar-2" horiz-adv-x="960" d="M448 384h64v64h-64v-64zM448 128h64v64h-64v-64zM704 384h64v64h-64v-64zM704 128h64v64h-64v-64zM192 128h64v64h-64v-64zM896 704h-832v64c0 35.328 28.672 64 64 64h128v-32c0-17.696 14.304-32 32-32s32 14.304 32 32v32h320v-32c0-17.696 14.304-32 32-32s32 14.304 32 32v32h128c35.328 0 64-28.672 64-64v-64zM832 384c0-35.328-28.672-64-64-64h-64c-35.328 0-64 28.672-64 64v64c0 35.328 28.672 64 64 64h64c35.328 0 64-28.672 64-64v-64zM832 128c0-35.328-28.672-64-64-64h-64c-35.328 0-64 28.672-64 64v64c0 35.328 28.672 64 64 64h64c35.328 0 64-28.672 64-64v-64zM576 384c0-35.328-28.672-64-64-64h-64c-35.328 0-64 28.672-64 64v64c0 35.328 28.672 64 64 64h64c35.328 0 64-28.672 64-64v-64zM576 128c0-35.328-28.672-64-64-64h-64c-35.328 0-64 28.672-64 64v64c0 35.328 28.672 64 64 64h64c35.328 0 64-28.672 64-64v-64zM320 384c0-35.328-28.672-64-64-64h-64c-35.328 0-64 28.672-64 64v64c0 35.328 28.672 64 64 64h64c35.328 0 64-28.672 64-64v-64zM320 128c0-35.328-28.672-64-64-64h-64c-35.328 0-64 28.672-64 64v64c0 35.328 28.672 64 64 64h64c35.328 0 64-28.672 64-64v-64zM832 896h-128v32c0 17.664-14.304 32-32 32s-32-14.336-32-32v-32h-320v32c0 17.664-14.304 32-32 32s-32-14.336-32-32v-32h-128c-70.688 0-128-57.312-128-128v-704c0-70.688 57.312-128 128-128h704c70.688 0 128 57.312 128 128v704c0 70.688-57.312 128-128 128v0zM192 384h64v64h-64v-64z" />
<glyph unicode="&#xe901;" glyph-name="calendar" horiz-adv-x="960" d="M448 192h64v-64h-64v64zM448 64h64c35.328 0 64 28.672 64 64v64c0 35.328-28.672 64-64 64h-64c-35.328 0-64-28.672-64-64v-64c0-35.328 28.672-64 64-64v0zM192 192h64v-64h-64v64zM192 64h64c35.328 0 64 28.672 64 64v64c0 35.328-28.672 64-64 64h-64c-35.328 0-64-28.672-64-64v-64c0-35.328 28.672-64 64-64v0zM448 448h64v-64h-64v64zM448 320h64c35.328 0 64 28.672 64 64v64c0 35.328-28.672 64-64 64h-64c-35.328 0-64-28.672-64-64v-64c0-35.328 28.672-64 64-64v0zM192 448h64v-64h-64v64zM192 320h64c35.328 0 64 28.672 64 64v64c0 35.328-28.672 64-64 64h-64c-35.328 0-64-28.672-64-64v-64c0-35.328 28.672-64 64-64v0zM896 704h-832v64c0 35.328 28.672 64 64 64h128v-32c0-17.696 14.304-32 32-32s32 14.304 32 32v32h320v-32c0-17.696 14.304-32 32-32s32 14.304 32 32v32h128c35.328 0 64-28.672 64-64v-64zM896 64c0-35.328-28.672-64-64-64h-704c-35.328 0-64 28.672-64 64v576h832v-576zM832 896h-128v32c0 17.664-14.304 32-32 32s-32-14.336-32-32v-32h-320v32c0 17.664-14.304 32-32 32s-32-14.336-32-32v-32h-128c-70.688 0-128-57.312-128-128v-704c0-70.688 57.312-128 128-128h704c70.688 0 128 57.312 128 128v704c0 70.688-57.312 128-128 128v0zM704 448h64v-64h-64v64zM704 320h64c35.328 0 64 28.672 64 64v64c0 35.328-28.672 64-64 64h-64c-35.328 0-64-28.672-64-64v-64c0-35.328 28.672-64 64-64v0zM704 192h64v-64h-64v64zM704 64h64c35.328 0 64 28.672 64 64v64c0 35.328-28.672 64-64 64h-64c-35.328 0-64-28.672-64-64v-64c0-35.328 28.672-64 64-64v0z" />
<glyph unicode="&#xe902;" glyph-name="clock-2" d="M832 416h64v64h-64v-64zM512 0c-247.424 0-448 200.576-448 448 0 247.392 200.576 448 448 448s448-200.608 448-448c0-247.424-200.576-448-448-448v0zM512 960c-282.784 0-512-229.248-512-512 0-282.784 229.216-512 512-512s512 229.216 512 512c0 282.752-229.216 512-512 512v0zM706.432 695.264l44.288-44.384 44.288 44.384-44.288 44.352-44.288-44.352zM697.056 231.104l45.248-45.248 45.248 45.248-45.248 45.248-45.248-45.248zM512 832c-17.664 0-32-14.304-32-32v-320.736h-256c-17.696 0-32-14.368-32-32.032s14.304-31.968 32-31.968h288c17.696 0 32 14.304 32 31.968v352.768c0 17.696-14.304 32-32 32v0zM310.144 693.664l-45.248 45.248-45.248-45.248 45.248-45.248 45.248 45.248zM215.456 229.376l44.288-44.384 44.288 44.384-44.288 44.384-44.288-44.384zM480 64h64v64h-64v-64z" />
<glyph unicode="&#xe903;" glyph-name="clock" d="M832 480h64v-64h-64v64zM750.72 650.88l-44.288 44.384 44.288 44.352 44.288-44.352-44.288-44.384zM742.304 185.856l-45.248 45.248 45.248 45.248 45.248-45.248-45.248-45.248zM544 447.232c0-17.664-14.304-31.968-32-31.968h-288c-17.696 0-32 14.304-32 31.968s14.304 32.032 32 32.032h256v320.736c0 17.696 14.336 32 32 32 17.696 0 32-14.304 32-32v-352.768zM480 128h64v-64h-64v64zM259.744 184.992l-44.288 44.384 44.288 44.384 44.288-44.384-44.288-44.384zM264.896 738.912l45.248-45.248-45.248-45.248-45.248 45.248 45.248 45.248zM512 960c-282.784 0-512-229.248-512-512 0-282.784 229.216-512 512-512s512 229.216 512 512c0 282.752-229.216 512-512 512v0z" />
<glyph unicode="&#xe904;" glyph-name="comment-1-1" d="M512 960c-282.752 0-512-200.608-512-448 0-141.408 75.040-267.328 192-349.408v-226.592l224.288 136.096c31.040-5.12 62.976-8.096 95.712-8.096 282.752 0 512 200.576 512 448 0 247.392-229.248 448-512 448z" />
<glyph unicode="&#xe905;" glyph-name="comment-1" d="M512 128c-37.376 0-73.472 4.352-108.16 11.744l-150.656-90.56 2.016 148.448c-115.488 69.44-191.2 184.256-191.2 314.368 0 212.064 200.576 384 448 384s448-171.936 448-384c0-212.096-200.576-384-448-384v0zM512 960c-282.752 0-512-200.608-512-448 0-141.408 75.040-267.328 192-349.408v-226.592l224.288 136.096c31.040-5.12 62.976-8.096 95.712-8.096 282.752 0 512 200.576 512 448 0 247.392-229.248 448-512 448v0z" />
<glyph unicode="&#xe906;" glyph-name="comment-2-1" d="M512 128c-37.376 0-73.472 4.352-108.16 11.744l-150.656-90.56 2.016 148.448c-115.488 69.44-191.2 184.256-191.2 314.368 0 212.064 200.576 384 448 384s448-171.936 448-384c0-212.096-200.576-384-448-384v0zM512 960c-282.752 0-512-200.608-512-448 0-141.408 75.040-267.328 192-349.408v-226.592l224.288 136.096c31.040-5.12 62.976-8.096 95.712-8.096 282.752 0 512 200.576 512 448 0 247.392-229.248 448-512 448v0zM736 608h-448c-17.664 0-32-14.336-32-32 0-17.696 14.336-32 32-32h448c17.664 0 32 14.304 32 32 0 17.664-14.336 32-32 32v0zM672 416h-320c-17.664 0-32-14.304-32-32s14.336-32 32-32h320c17.664 0 32 14.304 32 32s-14.336 32-32 32v0z" />
<glyph unicode="&#xe907;" glyph-name="comment-2" d="M736 544h-448c-17.664 0-32 14.304-32 32 0 17.664 14.336 32 32 32h448c17.664 0 32-14.336 32-32 0-17.696-14.336-32-32-32v0zM672 352h-320c-17.664 0-32 14.304-32 32s14.336 32 32 32h320c17.664 0 32-14.304 32-32s-14.336-32-32-32v0zM512 960c-282.752 0-512-200.608-512-448 0-141.408 75.040-267.328 192-349.408v-226.592l224.288 136.096c31.040-5.12 62.976-8.096 95.712-8.096 282.752 0 512 200.576 512 448 0 247.392-229.248 448-512 448v0z" />
<glyph unicode="&#xe908;" glyph-name="comment-3-1" d="M768 576c-35.328 0-64-28.672-64-64s28.672-64 64-64c35.328 0 64 28.672 64 64s-28.672 64-64 64v0zM512 128c-37.376 0-73.472 4.352-108.16 11.744l-150.656-90.56 2.016 148.448c-115.488 69.44-191.2 184.256-191.2 314.368 0 212.064 200.576 384 448 384s448-171.936 448-384c0-212.096-200.576-384-448-384v0zM512 960c-282.752 0-512-200.608-512-448 0-141.408 75.040-267.328 192-349.408v-226.592l224.288 136.096c31.040-5.12 62.976-8.096 95.712-8.096 282.752 0 512 200.576 512 448 0 247.392-229.248 448-512 448v0zM256 576c-35.328 0-64-28.672-64-64s28.672-64 64-64c35.328 0 64 28.672 64 64s-28.672 64-64 64v0zM512 576c-35.328 0-64-28.672-64-64s28.672-64 64-64c35.328 0 64 28.672 64 64s-28.672 64-64 64v0z" />
<glyph unicode="&#xe909;" glyph-name="comment-3" d="M768 448c-35.328 0-64 28.672-64 64s28.672 64 64 64c35.328 0 64-28.672 64-64s-28.672-64-64-64v0zM512 448c-35.328 0-64 28.672-64 64s28.672 64 64 64c35.328 0 64-28.672 64-64s-28.672-64-64-64v0zM256 448c-35.328 0-64 28.672-64 64s28.672 64 64 64c35.328 0 64-28.672 64-64s-28.672-64-64-64v0zM512 960c-282.752 0-512-200.608-512-448 0-141.408 75.040-267.328 192-349.408v-226.592l224.288 136.096c31.040-5.12 62.976-8.096 95.712-8.096 282.752 0 512 200.576 512 448 0 247.392-229.248 448-512 448v0z" />
<glyph unicode="&#xe90a;" glyph-name="comment-4-1" d="M623.808 171.744l-111.808-139.744-111.808 139.744c-193.344 40.896-336.448 184.64-336.448 356.224 0 203.36 200.704 368.224 448.256 368.224s448.256-164.864 448.256-368.224c0-171.584-143.104-315.328-336.448-356.224v0zM512 960c-282.784 0-512-196.576-512-439.040 0-199.968 156.064-368.384 369.344-421.408l142.656-163.584 142.688 163.584c213.248 53.024 369.312 221.44 369.312 421.408 0 242.464-229.216 439.040-512 439.040v0z" />
<glyph unicode="&#xe90b;" glyph-name="comment-4" d="M512 960c-282.784 0-512-196.576-512-439.040 0-199.968 156.064-368.384 369.344-421.408l142.656-163.584 142.688 163.584c213.248 53.024 369.312 221.44 369.312 421.408 0 242.464-229.216 439.040-512 439.040z" />
<glyph unicode="&#xe90c;" glyph-name="comment-51" d="M853.344 960h-682.688c-94.24 0-170.656-75.872-170.656-169.504v-540.48c0-93.568 65.76-154.016 160-154.016h212.448l139.552-160.032 139.552 160.032h212.448c94.24 0 160 60.448 160 154.016v540.48c0 93.632-76.416 169.504-170.656 169.504z" />
<glyph unicode="&#xe90d;" glyph-name="comment-5" d="M960 256c0-46.816-48.864-96-96-96h-256l-96-128-96 128h-256c-47.136 0-96 49.184-96 96v544c0 46.816 48.864 96 96 96h704c47.136 0 96-49.184 96-96v-544zM853.344 960h-682.688c-94.24 0-170.656-75.872-170.656-169.504v-540.48c0-93.568 65.76-154.016 160-154.016h212.448l139.552-160.032 139.552 160.032h212.448c94.24 0 160 60.448 160 154.016v540.48c0 93.632-76.416 169.504-170.656 169.504v0z" />
<glyph unicode="&#xe90e;" glyph-name="comments-1" horiz-adv-x="992" d="M208 640c26.528 0 48-21.504 48-48 0-26.528-21.472-48-48-48s-48 21.472-48 48c0 26.496 21.472 48 48 48v0zM400 640c26.528 0 48-21.504 48-48 0-26.528-21.472-48-48-48s-48 21.472-48 48c0 26.496 21.472 48 48 48v0zM592 640c26.528 0 48-21.504 48-48 0-26.528-21.472-48-48-48s-48 21.472-48 48c0 26.496 21.472 48 48 48v0zM308.384 232.448c24.864-4.064 81.408-8.448 107.616-8.448 229.76 0 384 170.976 384 372s-192.736 364-384 364c-230.048 0-416-162.976-416-364 0-116.48 44.384-215.328 128-286.528v-181.472l180.384 104.448zM862.368 667.552l1.632-27.552c0.256-26.144 0-23.744 0-48 0-255.2-201.088-432-480-432h-96c76.16-74.496 164.768-120 288-120 26.208 0 51.776 2.368 76.64 6.432l179.36-110.432v181.472c97.28 66.656 160 170.048 160 286.528 0 103.808-49.952 197.248-129.632 263.552v0z" />
<glyph unicode="&#xe90f;" glyph-name="comments" horiz-adv-x="992" d="M64 592c0 167.872 152.096 304 352 304 159.136 0 320-136.128 320-304 0-167.904-125.6-304-320-304-28.576 0-88.192 3.264-114.784 8.8l-109.216-72.8v113.408c-78.048 63.328-128 147.904-128 254.592v0zM308.384 232.448c24.864-4.064 81.408-8.448 107.616-8.448 229.76 0 384 170.976 384 372s-192.736 364-384 364c-230.048 0-416-162.976-416-364 0-116.48 44.384-215.328 128-286.528v-181.472l180.384 104.448zM862.368 667.552c0.608-9.152 1.632-18.24 1.632-27.552 0-20.352-1.984-40.288-4.832-59.968 43.072-50.432 68.832-112.576 68.832-180.032 0-106.688-63.744-200.352-160-254.592v-113.408l-109.216 72.8c-26.592-5.536-54.208-8.8-82.784-8.8-82.88 0-126.912 24.896-187.072 66.272-17.44-1.408-35.040-2.272-52.928-2.272-12.736 0-25.216 0.896-37.76 1.632 76.192-74.464 154.528-121.632 277.76-121.632 26.208 0 51.776 2.368 76.64 6.432l179.36-110.432v181.472c97.28 66.656 160 170.048 160 286.528 0 103.808-49.952 197.248-129.632 263.552v0zM592 544c26.528 0 48 21.472 48 48 0 26.496-21.472 48-48 48s-48-21.504-48-48c0-26.528 21.472-48 48-48v0zM208 544c26.528 0 48 21.472 48 48 0 26.496-21.472 48-48 48s-48-21.504-48-48c0-26.528 21.472-48 48-48v0zM400 544c26.528 0 48 21.472 48 48 0 26.496-21.472 48-48 48s-48-21.504-48-48c0-26.528 21.472-48 48-48v0z" />
<glyph unicode="&#xe910;" glyph-name="folder-2-1" d="M896 832h-448c0 70.688-57.312 128-128 128h-192c-70.688 0-128-57.312-128-128v-192h1024v64c0 70.688-57.312 128-128 128v0zM0 64c0-70.688 57.312-128 128-128h768c70.688 0 128 57.312 128 128v512h-1024v-512z" />
<glyph unicode="&#xe911;" glyph-name="folder-2" d="M960 640h-896v192c0 35.328 28.672 64 64 64h192c35.328 0 64-28.672 64-64v-64h512c35.328 0 64-28.672 64-64v-64zM960 64c0-35.328-28.672-64-64-64h-768c-35.328 0-64 28.672-64 64v512h896v-512zM896 832h-448c0 70.688-57.312 128-128 128h-192c-70.688 0-128-57.312-128-128v-768c0-70.688 57.312-128 128-128h768c70.688 0 128 57.312 128 128v640c0 70.688-57.312 128-128 128v0z" />
<glyph unicode="&#xe912;" glyph-name="folder-1" horiz-adv-x="960" d="M948.512 884.512l-180.512-180.512h-576l-180.512 180.512c-7.232-16.064-11.488-33.76-11.488-52.512v-768c0-70.688 57.312-128 128-128h704c70.688 0 128 57.312 128 128v768c0 18.752-4.256 36.448-11.488 52.512v0zM736 768l168.96 168.96c-20.704 14.432-45.792 23.040-72.96 23.040h-704c-27.168 0-52.256-8.608-72.96-23.040l168.96-168.96h512z" />
<glyph unicode="&#xe913;" glyph-name="folder2" horiz-adv-x="960" d="M896 64c0-35.328-28.672-64-64-64h-704c-35.328 0-64 28.672-64 64v760.896l128-120.896h576l128 120.896v-760.896zM128 896h704c12.736 0 24.576-3.84 34.528-10.24l-130.528-117.76h-512l-130.528 117.76c9.984 6.4 21.792 10.24 34.528 10.24v0zM832 960h-704c-70.688 0-128-57.312-128-128v-768c0-70.688 57.312-128 128-128h704c70.688 0 128 57.312 128 128v768c0 70.688-57.312 128-128 128v0z" />
<glyph unicode="&#xe914;" glyph-name="user-1" horiz-adv-x="704" d="M640 144c0-79.52-70.336-144-157.088-144h-261.824c-86.752 0-157.088 64.48-157.088 144v96c0 68.032 51.616 124.672 120.8 139.744 47.2-37.472 104.8-59.744 167.2-59.744s120 22.272 167.2 59.744c69.184-15.072 120.8-71.712 120.8-139.744v-96zM128 640c0 141.376 100.288 256 224 256s224-114.624 224-256c0-141.376-100.288-256-224-256s-224 114.624-224 256v0zM574.432 436.704c40.928 55.296 65.568 126.112 65.568 203.296 0 176.704-128.928 320-288 320s-288-143.296-288-320c0-77.184 24.64-148 65.568-203.296-75.2-25.984-129.568-96.64-129.568-180.704v-128c0-106.016 85.984-192 192-192h320c106.016 0 192 85.984 192 192v128c0 84.064-54.368 154.72-129.568 180.704v0z" />
<glyph unicode="&#xe915;" glyph-name="user3" horiz-adv-x="704" d="M352 320c159.072 0 288 143.296 288 320s-128.928 320-288 320c-159.072 0-288-143.296-288-320s128.928-320 288-320v0zM630.496 405.792c-64.384-90.944-165.024-149.792-278.496-149.792s-214.112 58.848-278.496 149.792c-44.576-34.944-73.504-88.704-73.504-149.792v-128c0-106.016 85.984-192 192-192h320c106.016 0 192 85.984 192 192v128c0 61.088-28.928 114.848-73.504 149.792v0z" />
<glyph unicode="&#xe916;" glyph-name="left-quote" d="M327.742 488.033c-25.221 7.261-50.442 10.945-74.975 10.945-37.885 0-69.497-8.658-94.009-19.259 23.631 86.511 80.399 235.785 193.485 252.595 10.473 1.558 19.055 9.13 21.912 19.324l24.716 88.402c2.084 7.476 0.849 15.478-3.416 21.966s-11.117 10.817-18.797 11.869c-8.346 1.139-16.853 1.719-25.285 1.719-135.739 0-270.168-141.679-326.893-344.541-33.298-119.015-43.062-297.945 38.959-410.569 45.898-63.020 112.86-96.673 199.028-100.035 0.354-0.011 0.698-0.021 1.053-0.021 106.318 0 200.596 71.602 229.275 174.107 17.133 61.28 9.388 125.546-21.827 181.003-30.882 54.835-81.742 94.804-143.226 112.495zM993.269 375.528c-30.882 54.846-81.742 94.814-143.226 112.506-25.221 7.261-50.442 10.945-74.964 10.945-37.885 0-69.508-8.658-94.020-19.259 23.631 86.511 80.399 235.785 193.496 252.595 10.473 1.558 19.045 9.13 21.912 19.324l24.716 88.402c2.084 7.476 0.849 15.478-3.416 21.966-4.254 6.488-11.107 10.817-18.797 11.869-8.335 1.139-16.843 1.719-25.285 1.719-135.739 0-270.168-141.679-326.904-344.541-33.288-119.015-43.052-297.945 38.981-410.59 45.887-63.009 112.86-96.673 199.017-100.024 0.354-0.011 0.698-0.021 1.063-0.021 106.308 0 200.596 71.602 229.275 174.107 17.111 61.28 9.356 125.556-21.848 181.003z" />
<glyph unicode="&#xe917;" glyph-name="paperclip" d="M951.854 601.665l-534.785-534.783c-73.724-73.72-193.674-73.72-267.393 0-35.71 35.712-55.378 83.192-55.378 133.696s19.666 97.984 55.378 133.694l516.957 516.963c44.234 44.23 116.206 44.23 160.438 0 21.426-21.426 33.224-49.916 33.224-80.216 0-30.304-11.8-58.792-33.226-80.218l-516.957-516.963c-14.746-14.742-38.736-14.742-53.48 0-14.742 14.746-14.742 38.732 0 53.478l534.787 534.785-53.478 53.478-534.791-534.785c-44.228-44.234-44.228-116.204 0-160.434 44.234-44.234 116.202-44.234 160.436 0l516.963 516.959c73.722 73.718 73.722 193.67 0 267.391s-193.674 73.72-267.393 0l-516.961-516.957c-49.996-49.996-77.53-116.47-77.53-187.174 0-70.706 27.534-137.18 77.53-187.174 51.61-51.61 119.38-77.404 187.174-77.404 67.778 0 135.576 25.808 187.176 77.404l534.785 534.785-53.478 53.476z" />
<glyph unicode="&#xe918;" glyph-name="right-quotation-sign" d="M1002.562 528.938c-54.387 194.503-188.556 335.697-318.974 335.697-10.475 0-20.94-0.912-31.136-2.715-5.782-1.015-10.838-4.414-13.967-9.346-3.119-4.963-3.999-10.993-2.414-16.63l26.846-96.029c2.59-9.273 11.532-15.542 20.826-15.117l2.134 0.041c48.367 0 136.759-72.488 181.821-233.596 1.782-6.393 3.471-12.931 5.098-19.749-50.584 25.033-110.928 30.825-165.574 15.604-123.279-34.493-195.498-162.828-161.036-286.087 27.934-99.873 119.808-169.646 223.421-169.646 21.106 0 42.181 2.912 62.645 8.641 81.295 22.722 142.416 90.216 172.112 190.006 26.805 90.030 26.131 198.979-1.803 298.924zM145.97 864.614c-10.455 0-20.93-0.891-31.115-2.694-5.771-0.995-10.838-4.414-13.957-9.346-3.119-4.963-3.999-10.993-2.425-16.63l26.857-96.029c2.59-9.273 11.366-15.542 20.826-15.117l2.114 0.041c48.367 0 136.77-72.488 181.831-233.596 1.793-6.434 3.481-12.972 5.098-19.749-50.605 25.033-110.928 30.825-165.574 15.604-123.258-34.493-195.498-162.828-161.015-286.087 27.934-99.873 119.808-169.646 223.421-169.646 21.106 0 42.181 2.912 62.655 8.641 81.285 22.722 142.406 90.216 172.112 190.006 26.794 90.030 26.131 198.989-1.813 298.945-54.418 194.482-188.566 335.655-319.015 335.655z" />
<glyph unicode="&#xe919;" glyph-name="cross-out" d="M1023.977 928.087l-31.863 31.913-480.114-480.082-480.082 480.082-31.895-31.913 480.082-480.078-480.082-480.082 31.895-31.927 480.082 480.146 480.114-480.146 31.863 31.927-480.082 480.082z" />
<glyph unicode="&#xe91a;" glyph-name="favorite-heart-button" d="M512-23.040l-71.68 71.68c-266.24 235.52-440.32 394.24-440.32 588.8 0 158.72 122.88 281.6 281.6 281.6 87.040 0 174.080-40.96 230.4-107.52 56.32 66.56 143.36 107.52 230.4 107.52 158.72 0 281.6-122.88 281.6-281.6 0-194.56-174.080-353.28-440.32-588.8l-71.68-71.68z" />
<glyph unicode="&#xe91b;" glyph-name="heart2" d="M941.29 814.55c-53.62 53.62-124.608 82.927-200.371 82.927s-146.968-29.524-200.588-83.144l-28.004-28.004-28.438 28.438c-53.62 53.62-125.042 83.361-200.805 83.361-75.546 0-146.751-29.524-200.154-82.927-53.62-53.62-83.144-124.825-82.927-200.588 0-75.763 29.741-146.751 83.361-200.371l407.689-407.689c5.644-5.644 13.242-8.683 20.623-8.683s14.979 2.822 20.623 8.466l408.557 407.038c53.62 53.62 83.144 124.825 83.144 200.588 0.217 75.763-29.090 146.968-82.71 200.588zM899.609 454.837l-387.934-386.414-387.066 387.066c-42.549 42.549-65.994 98.992-65.994 159.125s23.228 116.576 65.777 158.907c42.332 42.332 98.774 65.777 158.69 65.777 60.133 0 116.793-23.445 159.342-65.994l49.062-49.062c11.506-11.506 29.958-11.506 41.464 0l48.627 48.627c42.549 42.549 99.209 65.994 159.125 65.994s116.358-23.445 158.907-65.777c42.549-42.549 65.777-98.992 65.777-159.125 0.217-60.133-23.228-116.576-65.777-159.125z" />
<glyph unicode="&#xe91c;" glyph-name="sina-weibo" d="M753.221 444.491c-14.13 4.292-23.814 7.255-16.425 26.13 16.003 41.011 17.681 76.383 0.319 101.618-32.562 47.341-121.624 44.799-223.685 1.266 0 0.051-32.068-14.274-23.876 11.619 15.705 51.396 13.317 94.414-11.094 119.268-55.368 56.407-202.649-2.141-328.987-130.66-94.578-96.287-149.473-198.347-149.473-286.586 0-168.77 212.622-281.677 420.653-281.677 272.693 0 454.121 171.559 454.121 299.595 0 77.381-64.023 121.285-121.552 139.429zM421.219 81.14c-166.001-16.446-309.269 58.96-320.064 168.574-10.775 109.563 115.079 211.778 281.060 228.275 166.011 16.528 309.31-58.939 320.064-168.502 10.744-109.614-115.028-211.839-281.060-228.347zM1024 581.923c-0.082 170.447-138.266 308.61-308.744 308.61-19.904 0-36.020-16.127-36.020-36.020 0-19.904 16.116-36.020 36.020-36.020 130.732 0 236.704-105.981 236.704-236.704 0-19.904 16.137-36.020 36.020-36.020 19.904 0 36.020 16.116 36.020 36.020 0 0 0 0.082 0 0.134zM880.877 587.213c-16.456 80.366-79.81 143.71-160.187 160.176-19.461 4.003-38.511-8.542-42.504-28.024-4.014-19.482 8.532-38.511 27.993-42.535 52.26-10.703 93.446-51.859 104.139-104.119 4.024-19.482 23.053-32.017 42.535-28.024 19.471 4.024 32.006 23.053 28.024 42.524zM336.078 370.67c-66.874-13.441-111.992-69.519-100.795-125.237 11.187-55.728 74.479-89.999 141.353-76.548 66.853 13.441 111.992 69.498 100.784 125.237-11.177 55.708-74.49 89.989-141.343 76.548z" />
<glyph unicode="&#xe91d;" glyph-name="plus-sign" d="M1024 479.97h-480.015v479.535h-63.938v-479.535h-480.047v-63.94h480.047v-479.535h63.938v479.535h480.015z" />
<glyph unicode="&#xe91e;" glyph-name="Arrow-OutLeft" d="M117.504 320c-6.272 0-12.448 2.72-16.672 8.032l-85.28 106.656c-6.24 7.808-6.24 18.848 0 26.656l85.28 106.656c7.328 9.12 20.768 10.656 29.984 3.328 9.184-7.328 10.656-20.832 3.328-29.984l-74.624-93.344 74.656-93.344c7.328-9.216 5.856-22.656-3.328-29.984-3.936-3.072-8.608-4.64-13.344-4.64zM991.744 426.656h-938.656c-11.776 0-21.344 9.568-21.344 21.344s9.568 21.344 21.344 21.344h938.656c11.744 0 21.344-9.568 21.344-21.344s-9.568-21.344-21.344-21.344z" />
<glyph unicode="&#xe91f;" glyph-name="Arrow-OutRight" d="M906.496 320c-4.64 0-9.44 1.536-13.344 4.64-9.216 7.328-10.656 20.736-3.296 29.984l74.592 93.344-74.592 93.312c-7.392 9.184-5.92 22.656 3.296 29.984 9.312 7.392 22.656 5.888 29.984-3.328l85.28-106.656c6.24-7.808 6.24-18.848 0-26.656l-85.28-106.656c-4.192-5.248-10.368-7.968-16.64-7.968zM970.912 426.656h-938.656c-11.744 0-21.344 9.568-21.344 21.344s9.6 21.344 21.344 21.344h938.656c11.744 0 21.344-9.568 21.344-21.344s-9.6-21.344-21.344-21.344z" />
<glyph unicode="&#xe920;" glyph-name="bag3" d="M931.378 432.31l-23.826 243.728c-0.76 7.788-7.31 13.728-15.134 13.728h-90.496v72.53c0 109.012-88.69 197.702-197.702 197.702-32.912 0-63.964-8.094-91.29-22.38-27.916 14.62-59.14 22.382-91.57 22.382-109.014 0-197.702-88.688-197.702-197.702v-37.046c0-8.398 6.81-15.208 15.208-15.208s15.208 6.81 15.208 15.208v37.046c0 92.244 75.044 167.286 167.286 167.286 21.302 0 41.972-3.994 61.212-11.548-46.266-36.22-76.056-92.564-76.056-155.74v-72.53h-274.916c-7.826 0-14.374-5.94-15.134-13.728l-63.53-649.726c-2.254-23.064 5.38-46.134 20.948-63.3 15.566-17.166 37.786-27.012 60.96-27.012h326.462c8.398 0 15.208 6.81 15.208 15.208s-6.812 15.208-15.21 15.208l-142.098 0.002c-14.794 0.020-28.41 6.062-38.352 17.024-9.96 10.98-14.65 25.152-13.208 39.906l62.172 636.004h76.7v-163.232c0-8.398 6.81-15.208 15.208-15.208s15.208 6.81 15.208 15.208v163.232h334.574v-163.232c0-8.398 6.81-15.208 15.208-15.208s15.208 6.81 15.208 15.208v163.232h76.7l22.484-230c0.818-8.358 8.266-14.486 16.616-13.656 8.358 0.816 14.472 8.256 13.654 16.614zM237.374 26.306c-2.108-21.568 4.436-43.144 18.028-59.888h-120.56c-14.824 0-28.474 6.046-38.432 17.026s-14.648 25.152-13.206 39.906l62.186 636h153.866l-61.882-633.044zM771.506 689.766h-334.574v72.53c0 58.564 30.274 110.162 75.97 140.056 9.53-6.258 18.502-13.514 26.748-21.766 31.596-31.594 48.996-73.604 48.996-118.29v-37.046c0-8.398 6.81-15.208 15.208-15.208s15.208 6.81 15.208 15.208v37.048c0 52.81-20.566 102.458-57.902 139.796-5.702 5.706-11.696 11.014-17.942 15.924 18.914 7.436 39.478 11.566 61 11.566 92.244 0 167.286-75.044 167.286-167.286v-72.532zM971.064 26.306l-33.742 345.16c-0.818 8.358-8.248 14.478-16.616 13.656-8.36-0.818-14.474-8.256-13.656-16.616l33.742-345.16c1.442-14.754-3.248-28.926-13.206-39.904-9.958-10.98-23.606-17.026-38.43-17.026h-377.16c-8.398 0-15.208-6.81-15.208-15.208s6.81-15.208 15.208-15.208h377.16c23.172 0 45.39 9.844 60.96 27.010 15.568 17.166 23.204 40.234 20.948 63.296z" />
<glyph unicode="&#xe921;" glyph-name="bag4" d="M658.031 833.466c-10.292 72.132-73.078 126.534-146.039 126.534-46.922 0-91.485-22.642-119.191-60.59-5.659-7.739-3.966-18.595 3.773-24.254 7.714-5.639 18.595-3.966 24.244 3.783 21.208 29.019 55.286 46.347 91.169 46.347 55.8 0 103.805-41.583 111.676-96.717 1.241-8.659 8.669-14.908 17.166-14.908 0.808 0 1.642 0.061 2.471 0.173 9.488 1.358 16.083 10.149 14.73 19.632zM908.704 639.173l-52.068 86.781c-3.132 5.232-8.781 8.425-14.883 8.425h-49.897c-9.58 0-17.354-7.775-17.354-17.354s7.775-17.354 17.354-17.354h40.073l31.241-52.068h-702.36l31.241 52.068h18.381c9.58 0 17.354 7.775 17.354 17.354s-7.775 17.354-17.354 17.354h-28.205c-6.102 0-11.751-3.193-14.883-8.425l-52.068-86.781c-3.219-5.369-3.295-12.046-0.219-17.486s8.842-8.807 15.102-8.807h763.661c6.259 0 12.020 3.366 15.102 8.807s3 12.127-0.219 17.486zM822.192 799.205c-2.431 3.92-6.31 6.702-10.795 7.749l-236.598 55.337c-4.48 1.053-9.198 0.269-13.114-2.151-3.905-2.431-6.692-6.31-7.739-10.795l-17.842-76.271c-2.186-9.33 3.61-18.666 12.946-20.842 9.33-2.186 18.676 3.61 20.853 12.946l13.892 59.364 202.795-47.436-31.866-136.246c-2.186-9.33 3.61-18.666 12.946-20.842 1.337-0.31 2.664-0.458 3.976-0.458 7.881 0 15.015 5.4 16.871 13.398l35.822 153.142c1.058 4.48 0.285 9.198-2.146 13.103zM521.17 758.177l-15.814 133.754c-0.539 4.571-2.873 8.746-6.493 11.593s-8.192 4.149-12.783 3.61l-290.288-34.312c-9.514-1.129-16.317-9.753-15.193-19.276l26.364-223.083c1.047-8.832 8.537-15.325 17.217-15.325 0.676 0 1.373 0.046 2.064 0.122 9.508 1.129 16.312 9.753 15.193 19.276l-24.33 205.861 255.818 30.234 13.769-116.517c1.129-9.519 9.712-16.281 19.276-15.203 9.514 1.119 16.317 9.747 15.198 19.266zM658.433 636.834l-34.449 143.257c-1.078 4.469-3.89 8.339-7.81 10.744-3.92 2.385-8.624 3.132-13.124 2.064l-279.594-67.241c-9.32-2.237-15.056-11.614-12.819-20.934l17.217-71.603c2.237-9.33 11.614-15.071 20.929-12.819 9.32 2.237 15.056 11.614 12.819 20.934l-13.164 54.732 245.847 59.115 30.391-126.376c1.907-7.958 9.025-13.297 16.861-13.297 1.347 0 2.71 0.158 4.078 0.488 9.32 2.242 15.056 11.614 12.819 20.934zM911.17 631.124c-0.478 9.224-8.095 16.464-17.339 16.464h-763.661c-9.244 0-16.861-7.236-17.339-16.464l-34.714-676.88c-0.244-4.749 1.475-9.397 4.749-12.844 3.28-3.442 7.825-5.4 12.585-5.4h833.083c4.754 0 9.305 1.953 12.6 5.4 3.269 3.447 4.988 8.090 4.749 12.844l-34.714 676.88zM113.715-29.286l32.934 642.167h730.682l32.934-642.167h-796.55zM642.162 578.172c-28.714 0-52.068-23.354-52.068-52.068s23.354-52.068 52.068-52.068c28.714 0 52.068 23.354 52.068 52.068s-23.354 52.068-52.068 52.068zM642.162 508.745c-9.575 0-17.354 7.785-17.354 17.354s7.785 17.354 17.354 17.354c9.569 0 17.354-7.785 17.354-17.354s-7.785-17.354-17.354-17.354zM381.823 578.172c-28.714 0-52.068-23.354-52.068-52.068s23.354-52.068 52.068-52.068c28.714 0 52.068 23.354 52.068 52.068s-23.354 52.068-52.068 52.068zM381.823 508.745c-9.569 0-17.354 7.785-17.354 17.354s7.785 17.354 17.354 17.354 17.354-7.785 17.354-17.354-7.785-17.354-17.354-17.354zM642.162 526.104h-1.337c-9.58 0-17.354-7.775-17.354-17.354 0-2.369 0.468-4.632 1.337-6.692v-88.764c0-62.202-50.608-112.815-112.815-112.815s-112.815 50.608-112.815 112.815v95.451c0 9.58-7.775 17.354-17.354 17.354s-17.354-7.775-17.354-17.354v-95.456c0-81.346 66.178-147.523 147.523-147.523s147.523 66.178 147.523 147.523v95.456c0 9.58-7.775 17.359-17.354 17.359z" />
<glyph unicode="&#xe922;" glyph-name="bag5" d="M353.627 107.67h-2.106c-11.632 0-21.064-9.432-21.064-21.064s9.432-21.064 21.064-21.064h2.106c11.632 0 21.064 9.432 21.064 21.064s-9.432 21.064-21.064 21.064zM917.336 751.414l-0.046-0.058c-0.108 2.402-0.578 4.806-1.532 7.112-3.26 7.87-10.942 13.004-19.462 13.004h-156.132v118.796c0 38.448-31.284 69.732-69.736 69.732h-218.634c-38.45 0-69.732-31.284-69.732-69.732v-28.482h-28.482c-38.45 0-69.732-31.284-69.732-69.732v-20.582h-57.938c-5.586 0-10.944-2.22-14.894-6.17l-98.196-98.224c-3.578-3.58-5.892-8.438-6.154-13.872-5.878-122.862-11.858-237.094-17.642-347.561-5.784-110.462-11.764-224.686-17.642-347.573-0.276-5.752 1.818-11.368 5.792-15.542 3.978-4.168 9.486-6.53 15.246-6.53h740.951c5.602 0 10.95 2.244 14.896 6.198l-0.002-0.030 98.204 98.204c4.222 4.222 6.452 10.036 6.14 15.996-0.23 4.496-23.634 452.139-35.274 695.047zM845.442 729.34l-56.074-56.074h-147.418v56.074h203.492zM424.193 890.268c0 15.222 12.382 27.604 27.604 27.604h218.634c15.222 0 27.604-12.384 27.604-27.604v-118.796h-56.082v20.58c0 38.452-31.284 69.732-69.732 69.732h-148.024v28.484zM641.951 516.325c0-11.616-9.45-21.064-21.064-21.064s-21.064 9.45-21.064 21.064 9.45 21.064 21.064 21.064 21.064-9.45 21.064-21.064zM424.193 819.656h148.024c15.222 0 27.604-12.384 27.604-27.604v-20.582h-175.628v48.186zM325.979 792.052c0 15.222 12.382 27.604 27.604 27.604h28.482v-48.186h-56.086v20.582zM325.979 729.34h273.841v-56.074h-273.841v56.074zM304.915 537.389c11.616 0 21.064-9.45 21.064-21.064s-9.45-21.064-21.064-21.064-21.064 9.45-21.064 21.064 9.448 21.064 21.064 21.064zM234.64 729.34h49.212v-56.074h-105.29l56.078 56.074zM114.526-21.866c5.532 114.444 11.138 221.54 16.572 325.311 5.47 104.488 11.116 212.328 16.688 327.693h136.066v-55.242c-24.518-8.696-42.13-32.112-42.13-59.572 0-34.846 28.348-63.194 63.194-63.194s63.194 28.348 63.194 63.194c0 27.46-17.612 50.876-42.13 59.572v55.242h273.841v-55.242c-24.518-8.696-42.13-32.112-42.13-59.572 0-34.846 28.348-63.194 63.194-63.194s63.194 28.348 63.194 63.194c0 27.46-17.612 50.876-42.13 59.572v55.242h136.066c5.572-115.368 11.218-223.208 16.688-327.693 3.334-63.692 6.734-128.646 10.142-195.774h-354.583c-11.632 0-21.064-9.432-21.064-21.064s9.432-21.064 21.064-21.064h356.709c1.436-28.694 2.874-57.8 4.304-87.408h-696.749zM852.116 5.6v-0.006c-5.132 105.014-10.312 203.96-15.344 300.051-5.64 107.666-11.462 218.93-17.196 338.253l57.974 57.974c11.12-228.006 29.292-576.897 32.5-638.337l-57.934-57.936z" />
<glyph unicode="&#xe923;" glyph-name="minus-sign" d="M0 472.381h1024v-48.762h-1024v48.762z" />
<glyph unicode="&#xe9d7;" glyph-name="star-empty" d="M1024 562.95l-353.78 51.408-158.22 320.582-158.216-320.582-353.784-51.408 256-249.538-60.432-352.352 316.432 166.358 316.432-166.358-60.434 352.352 256.002 249.538zM512 206.502l-223.462-117.48 42.676 248.83-180.786 176.222 249.84 36.304 111.732 226.396 111.736-226.396 249.836-36.304-180.788-176.222 42.678-248.83-223.462 117.48z" />
<glyph unicode="&#xe9d8;" glyph-name="star-half" d="M1024 562.95l-353.78 51.408-158.22 320.582-158.216-320.582-353.784-51.408 256-249.538-60.432-352.352 316.432 166.358 316.432-166.358-60.434 352.352 256.002 249.538zM512 206.502l-0.942-0.496 0.942 570.768 111.736-226.396 249.836-36.304-180.788-176.222 42.678-248.83-223.462 117.48z" />
<glyph unicode="&#xe9d9;" glyph-name="star-full" d="M1024 562.95l-353.78 51.408-158.22 320.582-158.216-320.582-353.784-51.408 256-249.538-60.432-352.352 316.432 166.358 316.432-166.358-60.434 352.352 256.002 249.538z" />
<glyph unicode="&#xf001;" glyph-name="music" horiz-adv-x="878" d="M877.714 822.857v-640c0-80.571-120.571-109.714-182.857-109.714s-182.857 29.143-182.857 109.714 120.571 109.714 182.857 109.714c37.714 0 75.429-6.857 109.714-22.286v306.857l-438.857-135.429v-405.143c0-80.571-120.571-109.714-182.857-109.714s-182.857 29.143-182.857 109.714 120.571 109.714 182.857 109.714c37.714 0 75.429-6.857 109.714-22.286v552.571c0 24 16 45.143 38.857 52.571l475.429 146.286c5.143 1.714 10.286 2.286 16 2.286 30.286 0 54.857-24.571 54.857-54.857z" />
<glyph unicode="&#xf002;" glyph-name="search" horiz-adv-x="951" d="M658.286 475.428c0 141.143-114.857 256-256 256s-256-114.857-256-256 114.857-256 256-256 256 114.857 256 256zM950.857 0c0-40-33.143-73.143-73.143-73.143-19.429 0-38.286 8-51.429 21.714l-196 195.429c-66.857-46.286-146.857-70.857-228-70.857-222.286 0-402.286 180-402.286 402.286s180 402.286 402.286 402.286 402.286-180 402.286-402.286c0-81.143-24.571-161.143-70.857-228l196-196c13.143-13.143 21.143-32 21.143-51.429z" />
<glyph unicode="&#xf003;" glyph-name="envelope-o" d="M950.857 91.428v438.857c-12-13.714-25.143-26.286-39.429-37.714-81.714-62.857-164-126.857-243.429-193.143-42.857-36-96-80-155.429-80h-1.143c-59.429 0-112.571 44-155.429 80-79.429 66.286-161.714 130.286-243.429 193.143-14.286 11.429-27.429 24-39.429 37.714v-438.857c0-9.714 8.571-18.286 18.286-18.286h841.143c9.714 0 18.286 8.571 18.286 18.286zM950.857 692c0 14.286 3.429 39.429-18.286 39.429h-841.143c-9.714 0-18.286-8.571-18.286-18.286 0-65.143 32.571-121.714 84-162.286 76.571-60 153.143-120.571 229.143-181.143 30.286-24.571 85.143-77.143 125.143-77.143h1.143c40 0 94.857 52.571 125.143 77.143 76 60.571 152.571 121.143 229.143 181.143 37.143 29.143 84 92.571 84 141.143zM1024 713.143v-621.714c0-50.286-41.143-91.429-91.429-91.429h-841.143c-50.286 0-91.429 41.143-91.429 91.429v621.714c0 50.286 41.143 91.429 91.429 91.429h841.143c50.286 0 91.429-41.143 91.429-91.429z" />
<glyph unicode="&#xf005;" glyph-name="star" horiz-adv-x="951" d="M950.857 581.143c0-10.286-7.429-20-14.857-27.429l-207.429-202.286 49.143-285.714c0.571-4 0.571-7.429 0.571-11.429 0-14.857-6.857-28.571-23.429-28.571-8 0-16 2.857-22.857 6.857l-256.571 134.857-256.571-134.857c-7.429-4-14.857-6.857-22.857-6.857-16.571 0-24 13.714-24 28.571 0 4 0.571 7.429 1.143 11.429l49.143 285.714-208 202.286c-6.857 7.429-14.286 17.143-14.286 27.429 0 17.143 17.714 24 32 26.286l286.857 41.714 128.571 260c5.143 10.857 14.857 23.429 28 23.429s22.857-12.571 28-23.429l128.571-260 286.857-41.714c13.714-2.286 32-9.143 32-26.286z" />
<glyph unicode="&#xf006;" glyph-name="star-o" horiz-adv-x="951" d="M649.714 377.143l174.857 169.714-241.143 35.429-108 218.286-108-218.286-241.143-35.429 174.857-169.714-41.714-240.571 216 113.714 215.429-113.714zM950.857 581.143c0-10.286-7.429-20-14.857-27.429l-207.429-202.286 49.143-285.714c0.571-4 0.571-7.429 0.571-11.429 0-15.429-6.857-28.571-23.429-28.571-8 0-16 2.857-22.857 6.857l-256.571 134.857-256.571-134.857c-7.429-4-14.857-6.857-22.857-6.857-16.571 0-24 13.714-24 28.571 0 4 0.571 7.429 1.143 11.429l49.143 285.714-208 202.286c-6.857 7.429-14.286 17.143-14.286 27.429 0 17.143 17.714 24 32 26.286l286.857 41.714 128.571 260c5.143 10.857 14.857 23.429 28 23.429s22.857-12.571 28-23.429l128.571-260 286.857-41.714c13.714-2.286 32-9.143 32-26.286z" />
<glyph unicode="&#xf007;" glyph-name="user" horiz-adv-x="731" d="M731.429 151.428c0-83.429-54.857-151.429-121.714-151.429h-488c-66.857 0-121.714 68-121.714 151.429 0 150.286 37.143 324 186.857 324 46.286-45.143 109.143-73.143 178.857-73.143s132.571 28 178.857 73.143c149.714 0 186.857-173.714 186.857-324zM585.143 658.286c0-121.143-98.286-219.429-219.429-219.429s-219.429 98.286-219.429 219.429 98.286 219.429 219.429 219.429 219.429-98.286 219.429-219.429z" />
<glyph unicode="&#xf008;" glyph-name="film" horiz-adv-x="1097" d="M219.429 36.571v73.143c0 20-16.571 36.571-36.571 36.571h-73.143c-20 0-36.571-16.571-36.571-36.571v-73.143c0-20 16.571-36.571 36.571-36.571h73.143c20 0 36.571 16.571 36.571 36.571zM219.429 256v73.143c0 20-16.571 36.571-36.571 36.571h-73.143c-20 0-36.571-16.571-36.571-36.571v-73.143c0-20 16.571-36.571 36.571-36.571h73.143c20 0 36.571 16.571 36.571 36.571zM219.429 475.428v73.143c0 20-16.571 36.571-36.571 36.571h-73.143c-20 0-36.571-16.571-36.571-36.571v-73.143c0-20 16.571-36.571 36.571-36.571h73.143c20 0 36.571 16.571 36.571 36.571zM804.571 36.571v292.571c0 20-16.571 36.571-36.571 36.571h-438.857c-20 0-36.571-16.571-36.571-36.571v-292.571c0-20 16.571-36.571 36.571-36.571h438.857c20 0 36.571 16.571 36.571 36.571zM219.429 694.857v73.143c0 20-16.571 36.571-36.571 36.571h-73.143c-20 0-36.571-16.571-36.571-36.571v-73.143c0-20 16.571-36.571 36.571-36.571h73.143c20 0 36.571 16.571 36.571 36.571zM1024 36.571v73.143c0 20-16.571 36.571-36.571 36.571h-73.143c-20 0-36.571-16.571-36.571-36.571v-73.143c0-20 16.571-36.571 36.571-36.571h73.143c20 0 36.571 16.571 36.571 36.571zM804.571 475.428v292.571c0 20-16.571 36.571-36.571 36.571h-438.857c-20 0-36.571-16.571-36.571-36.571v-292.571c0-20 16.571-36.571 36.571-36.571h438.857c20 0 36.571 16.571 36.571 36.571zM1024 256v73.143c0 20-16.571 36.571-36.571 36.571h-73.143c-20 0-36.571-16.571-36.571-36.571v-73.143c0-20 16.571-36.571 36.571-36.571h73.143c20 0 36.571 16.571 36.571 36.571zM1024 475.428v73.143c0 20-16.571 36.571-36.571 36.571h-73.143c-20 0-36.571-16.571-36.571-36.571v-73.143c0-20 16.571-36.571 36.571-36.571h73.143c20 0 36.571 16.571 36.571 36.571zM1024 694.857v73.143c0 20-16.571 36.571-36.571 36.571h-73.143c-20 0-36.571-16.571-36.571-36.571v-73.143c0-20 16.571-36.571 36.571-36.571h73.143c20 0 36.571 16.571 36.571 36.571zM1097.143 786.286v-768c0-50.286-41.143-91.429-91.429-91.429h-914.286c-50.286 0-91.429 41.143-91.429 91.429v768c0 50.286 41.143 91.429 91.429 91.429h914.286c50.286 0 91.429-41.143 91.429-91.429z" />
<glyph unicode="&#xf00a;" glyph-name="th" d="M292.571 237.714v-109.714c0-30.286-24.571-54.857-54.857-54.857h-182.857c-30.286 0-54.857 24.571-54.857 54.857v109.714c0 30.286 24.571 54.857 54.857 54.857h182.857c30.286 0 54.857-24.571 54.857-54.857zM292.571 530.286v-109.714c0-30.286-24.571-54.857-54.857-54.857h-182.857c-30.286 0-54.857 24.571-54.857 54.857v109.714c0 30.286 24.571 54.857 54.857 54.857h182.857c30.286 0 54.857-24.571 54.857-54.857zM658.286 237.714v-109.714c0-30.286-24.571-54.857-54.857-54.857h-182.857c-30.286 0-54.857 24.571-54.857 54.857v109.714c0 30.286 24.571 54.857 54.857 54.857h182.857c30.286 0 54.857-24.571 54.857-54.857zM292.571 822.857v-109.714c0-30.286-24.571-54.857-54.857-54.857h-182.857c-30.286 0-54.857 24.571-54.857 54.857v109.714c0 30.286 24.571 54.857 54.857 54.857h182.857c30.286 0 54.857-24.571 54.857-54.857zM658.286 530.286v-109.714c0-30.286-24.571-54.857-54.857-54.857h-182.857c-30.286 0-54.857 24.571-54.857 54.857v109.714c0 30.286 24.571 54.857 54.857 54.857h182.857c30.286 0 54.857-24.571 54.857-54.857zM1024 237.714v-109.714c0-30.286-24.571-54.857-54.857-54.857h-182.857c-30.286 0-54.857 24.571-54.857 54.857v109.714c0 30.286 24.571 54.857 54.857 54.857h182.857c30.286 0 54.857-24.571 54.857-54.857zM658.286 822.857v-109.714c0-30.286-24.571-54.857-54.857-54.857h-182.857c-30.286 0-54.857 24.571-54.857 54.857v109.714c0 30.286 24.571 54.857 54.857 54.857h182.857c30.286 0 54.857-24.571 54.857-54.857zM1024 530.286v-109.714c0-30.286-24.571-54.857-54.857-54.857h-182.857c-30.286 0-54.857 24.571-54.857 54.857v109.714c0 30.286 24.571 54.857 54.857 54.857h182.857c30.286 0 54.857-24.571 54.857-54.857zM1024 822.857v-109.714c0-30.286-24.571-54.857-54.857-54.857h-182.857c-30.286 0-54.857 24.571-54.857 54.857v109.714c0 30.286 24.571 54.857 54.857 54.857h182.857c30.286 0 54.857-24.571 54.857-54.857z" />
<glyph unicode="&#xf00b;" glyph-name="th-list" d="M292.571 237.714v-109.714c0-30.286-24.571-54.857-54.857-54.857h-182.857c-30.286 0-54.857 24.571-54.857 54.857v109.714c0 30.286 24.571 54.857 54.857 54.857h182.857c30.286 0 54.857-24.571 54.857-54.857zM292.571 530.286v-109.714c0-30.286-24.571-54.857-54.857-54.857h-182.857c-30.286 0-54.857 24.571-54.857 54.857v109.714c0 30.286 24.571 54.857 54.857 54.857h182.857c30.286 0 54.857-24.571 54.857-54.857zM1024 237.714v-109.714c0-30.286-24.571-54.857-54.857-54.857h-548.571c-30.286 0-54.857 24.571-54.857 54.857v109.714c0 30.286 24.571 54.857 54.857 54.857h548.571c30.286 0 54.857-24.571 54.857-54.857zM292.571 822.857v-109.714c0-30.286-24.571-54.857-54.857-54.857h-182.857c-30.286 0-54.857 24.571-54.857 54.857v109.714c0 30.286 24.571 54.857 54.857 54.857h182.857c30.286 0 54.857-24.571 54.857-54.857zM1024 530.286v-109.714c0-30.286-24.571-54.857-54.857-54.857h-548.571c-30.286 0-54.857 24.571-54.857 54.857v109.714c0 30.286 24.571 54.857 54.857 54.857h548.571c30.286 0 54.857-24.571 54.857-54.857zM1024 822.857v-109.714c0-30.286-24.571-54.857-54.857-54.857h-548.571c-30.286 0-54.857 24.571-54.857 54.857v109.714c0 30.286 24.571 54.857 54.857 54.857h548.571c30.286 0 54.857-24.571 54.857-54.857z" />
<glyph unicode="&#xf00c;" glyph-name="check" d="M954.857 627.428c0-14.286-5.714-28.571-16-38.857l-491.429-491.429c-10.286-10.286-24.571-16-38.857-16s-28.571 5.714-38.857 16l-284.571 284.571c-10.286 10.286-16 24.571-16 38.857s5.714 28.571 16 38.857l77.714 77.714c10.286 10.286 24.571 16 38.857 16s28.571-5.714 38.857-16l168-168.571 374.857 375.429c10.286 10.286 24.571 16 38.857 16s28.571-5.714 38.857-16l77.714-77.714c10.286-10.286 16-24.571 16-38.857z" />
<glyph unicode="&#xf00d;" glyph-name="close, remove, times" horiz-adv-x="805" d="M741.714 195.428c0-14.286-5.714-28.571-16-38.857l-77.714-77.714c-10.286-10.286-24.571-16-38.857-16s-28.571 5.714-38.857 16l-168 168-168-168c-10.286-10.286-24.571-16-38.857-16s-28.571 5.714-38.857 16l-77.714 77.714c-10.286 10.286-16 24.571-16 38.857s5.714 28.571 16 38.857l168 168-168 168c-10.286 10.286-16 24.571-16 38.857s5.714 28.571 16 38.857l77.714 77.714c10.286 10.286 24.571 16 38.857 16s28.571-5.714 38.857-16l168-168 168 168c10.286 10.286 24.571 16 38.857 16s28.571-5.714 38.857-16l77.714-77.714c10.286-10.286 16-24.571 16-38.857s-5.714-28.571-16-38.857l-168-168 168-168c10.286-10.286 16-24.571 16-38.857z" />
<glyph unicode="&#xf015;" glyph-name="home2" horiz-adv-x="951" d="M804.571 384v-274.286c0-20-16.571-36.571-36.571-36.571h-219.429v219.429h-146.286v-219.429h-219.429c-20 0-36.571 16.571-36.571 36.571v274.286c0 1.143 0.571 2.286 0.571 3.429l328.571 270.857 328.571-270.857c0.571-1.143 0.571-2.286 0.571-3.429zM932 423.428l-35.429-42.286c-2.857-3.429-7.429-5.714-12-6.286h-1.714c-4.571 0-8.571 1.143-12 4l-395.429 329.714-395.429-329.714c-4-2.857-8.571-4.571-13.714-4-4.571 0.571-9.143 2.857-12 6.286l-35.429 42.286c-6.286 7.429-5.143 19.429 2.286 25.714l410.857 342.286c24 20 62.857 20 86.857 0l139.429-116.571v111.429c0 10.286 8 18.286 18.286 18.286h109.714c10.286 0 18.286-8 18.286-18.286v-233.143l125.143-104c7.429-6.286 8.571-18.286 2.286-25.714z" />
<glyph unicode="&#xf017;" glyph-name="clock-o" horiz-adv-x="878" d="M512 640v-256c0-10.286-8-18.286-18.286-18.286h-182.857c-10.286 0-18.286 8-18.286 18.286v36.571c0 10.286 8 18.286 18.286 18.286h128v201.143c0 10.286 8 18.286 18.286 18.286h36.571c10.286 0 18.286-8 18.286-18.286zM749.714 438.857c0 171.429-139.429 310.857-310.857 310.857s-310.857-139.429-310.857-310.857 139.429-310.857 310.857-310.857 310.857 139.429 310.857 310.857zM877.714 438.857c0-242.286-196.571-438.857-438.857-438.857s-438.857 196.571-438.857 438.857 196.571 438.857 438.857 438.857 438.857-196.571 438.857-438.857z" />
<glyph unicode="&#xf02b;" glyph-name="tag" horiz-adv-x="866" d="M256 694.857c0 40.571-32.571 73.143-73.143 73.143s-73.143-32.571-73.143-73.143 32.571-73.143 73.143-73.143 73.143 32.571 73.143 73.143zM865.714 365.714c0-19.429-8-38.286-21.143-51.429l-280.571-281.143c-13.714-13.143-32.571-21.143-52-21.143s-38.286 8-51.429 21.143l-408.571 409.143c-29.143 28.571-52 84-52 124.571v237.714c0 40 33.143 73.143 73.143 73.143h237.714c40.571 0 96-22.857 125.143-52l408.571-408c13.143-13.714 21.143-32.571 21.143-52z" />
<glyph unicode="&#xf02c;" glyph-name="tags" horiz-adv-x="1085" d="M256 694.857c0 40.571-32.571 73.143-73.143 73.143s-73.143-32.571-73.143-73.143 32.571-73.143 73.143-73.143 73.143 32.571 73.143 73.143zM865.714 365.714c0-19.429-8-38.286-21.143-51.429l-280.571-281.143c-13.714-13.143-32.571-21.143-52-21.143s-38.286 8-51.429 21.143l-408.571 409.143c-29.143 28.571-52 84-52 124.571v237.714c0 40 33.143 73.143 73.143 73.143h237.714c40.571 0 96-22.857 125.143-52l408.571-408c13.143-13.714 21.143-32.571 21.143-52zM1085.143 365.714c0-19.429-8-38.286-21.143-51.429l-280.571-281.143c-13.714-13.143-32.571-21.143-52-21.143-29.714 0-44.571 13.714-64 33.714l268.571 268.571c13.143 13.143 21.143 32 21.143 51.429s-8 38.286-21.143 52l-408.571 408c-29.143 29.143-84.571 52-125.143 52h128c40.571 0 96-22.857 125.143-52l408.571-408c13.143-13.714 21.143-32.571 21.143-52z" />
<glyph unicode="&#xf03a;" glyph-name="list" d="M146.286 201.143v-109.714c0-9.714-8.571-18.286-18.286-18.286h-109.714c-9.714 0-18.286 8.571-18.286 18.286v109.714c0 9.714 8.571 18.286 18.286 18.286h109.714c9.714 0 18.286-8.571 18.286-18.286zM146.286 420.571v-109.714c0-9.714-8.571-18.286-18.286-18.286h-109.714c-9.714 0-18.286 8.571-18.286 18.286v109.714c0 9.714 8.571 18.286 18.286 18.286h109.714c9.714 0 18.286-8.571 18.286-18.286zM146.286 640v-109.714c0-9.714-8.571-18.286-18.286-18.286h-109.714c-9.714 0-18.286 8.571-18.286 18.286v109.714c0 9.714 8.571 18.286 18.286 18.286h109.714c9.714 0 18.286-8.571 18.286-18.286zM1024 201.143v-109.714c0-9.714-8.571-18.286-18.286-18.286h-768c-9.714 0-18.286 8.571-18.286 18.286v109.714c0 9.714 8.571 18.286 18.286 18.286h768c9.714 0 18.286-8.571 18.286-18.286zM146.286 859.428v-109.714c0-9.714-8.571-18.286-18.286-18.286h-109.714c-9.714 0-18.286 8.571-18.286 18.286v109.714c0 9.714 8.571 18.286 18.286 18.286h109.714c9.714 0 18.286-8.571 18.286-18.286zM1024 420.571v-109.714c0-9.714-8.571-18.286-18.286-18.286h-768c-9.714 0-18.286 8.571-18.286 18.286v109.714c0 9.714 8.571 18.286 18.286 18.286h768c9.714 0 18.286-8.571 18.286-18.286zM1024 640v-109.714c0-9.714-8.571-18.286-18.286-18.286h-768c-9.714 0-18.286 8.571-18.286 18.286v109.714c0 9.714 8.571 18.286 18.286 18.286h768c9.714 0 18.286-8.571 18.286-18.286zM1024 859.428v-109.714c0-9.714-8.571-18.286-18.286-18.286h-768c-9.714 0-18.286 8.571-18.286 18.286v109.714c0 9.714 8.571 18.286 18.286 18.286h768c9.714 0 18.286-8.571 18.286-18.286z" />
<glyph unicode="&#xf03e;" glyph-name="image, photo, picture-o" horiz-adv-x="1097" d="M365.714 621.714c0-60.571-49.143-109.714-109.714-109.714s-109.714 49.143-109.714 109.714 49.143 109.714 109.714 109.714 109.714-49.143 109.714-109.714zM950.857 402.286v-256h-804.571v109.714l182.857 182.857 91.429-91.429 292.571 292.571zM1005.714 804.571h-914.286c-9.714 0-18.286-8.571-18.286-18.286v-694.857c0-9.714 8.571-18.286 18.286-18.286h914.286c9.714 0 18.286 8.571 18.286 18.286v694.857c0 9.714-8.571 18.286-18.286 18.286zM1097.143 786.286v-694.857c0-50.286-41.143-91.429-91.429-91.429h-914.286c-50.286 0-91.429 41.143-91.429 91.429v694.857c0 50.286 41.143 91.429 91.429 91.429h914.286c50.286 0 91.429-41.143 91.429-91.429z" />
<glyph unicode="&#xf046;" glyph-name="check-square-o" horiz-adv-x="955" d="M804.571 419.428v-181.714c0-90.857-73.714-164.571-164.571-164.571h-475.429c-90.857 0-164.571 73.714-164.571 164.571v475.429c0 90.857 73.714 164.571 164.571 164.571h475.429c22.857 0 45.714-4.571 66.857-14.286 5.143-2.286 9.143-7.429 10.286-13.143 1.143-6.286-0.571-12-5.143-16.571l-28-28c-3.429-3.429-8.571-5.714-13.143-5.714-1.714 0-3.429 0.571-5.143 1.143-8.571 2.286-17.143 3.429-25.714 3.429h-475.429c-50.286 0-91.429-41.143-91.429-91.429v-475.429c0-50.286 41.143-91.429 91.429-91.429h475.429c50.286 0 91.429 41.143 91.429 91.429v145.143c0 4.571 1.714 9.143 5.143 12.571l36.571 36.571c4 4 8.571 5.714 13.143 5.714 2.286 0 4.571-0.571 6.857-1.714 6.857-2.857 11.429-9.143 11.429-16.571zM936.571 698.857l-465.143-465.143c-18.286-18.286-46.857-18.286-65.143 0l-245.714 245.714c-18.286 18.286-18.286 46.857 0 65.143l62.857 62.857c18.286 18.286 46.857 18.286 65.143 0l150.286-150.286 369.714 369.714c18.286 18.286 46.857 18.286 65.143 0l62.857-62.857c18.286-18.286 18.286-46.857 0-65.143z" />
<glyph unicode="&#xf04b;" glyph-name="play" horiz-adv-x="809" d="M790.857 421.143l-758.857-421.714c-17.714-9.714-32-1.143-32 18.857v841.143c0 20 14.286 28.571 32 18.857l758.857-421.714c17.714-9.714 17.714-25.714 0-35.429z" />
<glyph unicode="&#xf053;" glyph-name="chevron-left" horiz-adv-x="768" d="M669.143 778.857l-303.429-303.429 303.429-303.429c14.286-14.286 14.286-37.143 0-51.429l-94.857-94.857c-14.286-14.286-37.143-14.286-51.429 0l-424 424c-14.286 14.286-14.286 37.143 0 51.429l424 424c14.286 14.286 37.143 14.286 51.429 0l94.857-94.857c14.286-14.286 14.286-37.143 0-51.429z" />
<glyph unicode="&#xf054;" glyph-name="chevron-right" horiz-adv-x="695" d="M632.571 449.714l-424-424c-14.286-14.286-37.143-14.286-51.429 0l-94.857 94.857c-14.286 14.286-14.286 37.143 0 51.429l303.429 303.429-303.429 303.429c-14.286 14.286-14.286 37.143 0 51.429l94.857 94.857c14.286 14.286 37.143 14.286 51.429 0l424-424c14.286-14.286 14.286-37.143 0-51.429z" />
<glyph unicode="&#xf058;" glyph-name="check-circle" horiz-adv-x="878" d="M733.714 531.428c0 9.714-3.429 19.429-10.286 26.286l-52 51.429c-6.857 6.857-16 10.857-25.714 10.857s-18.857-4-25.714-10.857l-233.143-232.571-129.143 129.143c-6.857 6.857-16 10.857-25.714 10.857s-18.857-4-25.714-10.857l-52-51.429c-6.857-6.857-10.286-16.571-10.286-26.286s3.429-18.857 10.286-25.714l206.857-206.857c6.857-6.857 16.571-10.857 25.714-10.857 9.714 0 19.429 4 26.286 10.857l310.286 310.286c6.857 6.857 10.286 16 10.286 25.714zM877.714 438.857c0-242.286-196.571-438.857-438.857-438.857s-438.857 196.571-438.857 438.857 196.571 438.857 438.857 438.857 438.857-196.571 438.857-438.857z" />
<glyph unicode="&#xf05a;" glyph-name="info-circle" horiz-adv-x="878" d="M585.143 164.571v91.429c0 10.286-8 18.286-18.286 18.286h-54.857v292.571c0 10.286-8 18.286-18.286 18.286h-182.857c-10.286 0-18.286-8-18.286-18.286v-91.429c0-10.286 8-18.286 18.286-18.286h54.857v-182.857h-54.857c-10.286 0-18.286-8-18.286-18.286v-91.429c0-10.286 8-18.286 18.286-18.286h256c10.286 0 18.286 8 18.286 18.286zM512 676.571v91.429c0 10.286-8 18.286-18.286 18.286h-109.714c-10.286 0-18.286-8-18.286-18.286v-91.429c0-10.286 8-18.286 18.286-18.286h109.714c10.286 0 18.286 8 18.286 18.286zM877.714 438.857c0-242.286-196.571-438.857-438.857-438.857s-438.857 196.571-438.857 438.857 196.571 438.857 438.857 438.857 438.857-196.571 438.857-438.857z" />
<glyph unicode="&#xf06a;" glyph-name="exclamation-circle" horiz-adv-x="878" d="M438.857 877.714c242.286 0 438.857-196.571 438.857-438.857s-196.571-438.857-438.857-438.857-438.857 196.571-438.857 438.857 196.571 438.857 438.857 438.857zM512 165.143v108.571c0 10.286-8 18.857-17.714 18.857h-109.714c-10.286 0-18.857-8.571-18.857-18.857v-108.571c0-10.286 8.571-18.857 18.857-18.857h109.714c9.714 0 17.714 8.571 17.714 18.857zM510.857 361.714l10.286 354.857c0 4-1.714 8-5.714 10.286-3.429 2.857-8.571 4.571-13.714 4.571h-125.714c-5.143 0-10.286-1.714-13.714-4.571-4-2.286-5.714-6.286-5.714-10.286l9.714-354.857c0-8 8.571-14.286 19.429-14.286h105.714c10.286 0 18.857 6.286 19.429 14.286z" />
<glyph unicode="&#xf071;" glyph-name="exclamation-triangle, warning" d="M585.143 165.143v108.571c0 10.286-8 18.857-18.286 18.857h-109.714c-10.286 0-18.286-8.571-18.286-18.857v-108.571c0-10.286 8-18.857 18.286-18.857h109.714c10.286 0 18.286 8.571 18.286 18.857zM584 378.857l10.286 262.286c0 3.429-1.714 8-5.714 10.857-3.429 2.857-8.571 6.286-13.714 6.286h-125.714c-5.143 0-10.286-3.429-13.714-6.286-4-2.857-5.714-8.571-5.714-12l9.714-261.143c0-7.429 8.571-13.143 19.429-13.143h105.714c10.286 0 18.857 5.714 19.429 13.143zM576 912.571l438.857-804.571c12.571-22.286 12-49.714-1.143-72s-37.143-36-62.857-36h-877.714c-25.714 0-49.714 13.714-62.857 36s-13.714 49.714-1.143 72l438.857 804.571c12.571 23.429 37.143 38.286 64 38.286s51.429-14.857 64-38.286z" />
<glyph unicode="&#xf077;" glyph-name="chevron-up" d="M961.714 190.286l-94.857-94.286c-14.286-14.286-37.143-14.286-51.429 0l-303.429 303.429-303.429-303.429c-14.286-14.286-37.143-14.286-51.429 0l-94.857 94.286c-14.286 14.286-14.286 37.714 0 52l424 423.429c14.286 14.286 37.143 14.286 51.429 0l424-423.429c14.286-14.286 14.286-37.714 0-52z" />
<glyph unicode="&#xf078;" glyph-name="chevron-down" d="M961.714 489.143l-424-423.429c-14.286-14.286-37.143-14.286-51.429 0l-424 423.429c-14.286 14.286-14.286 37.714 0 52l94.857 94.286c14.286 14.286 37.143 14.286 51.429 0l303.429-303.429 303.429 303.429c14.286 14.286 37.143 14.286 51.429 0l94.857-94.286c14.286-14.286 14.286-37.714 0-52z" />
<glyph unicode="&#xf07b;" glyph-name="folder" horiz-adv-x="951" d="M950.857 603.428v-402.286c0-70.286-57.714-128-128-128h-694.857c-70.286 0-128 57.714-128 128v548.571c0 70.286 57.714 128 128 128h182.857c70.286 0 128-57.714 128-128v-18.286h384c70.286 0 128-57.714 128-128z" />
<glyph unicode="&#xf07c;" glyph-name="folder-open" horiz-adv-x="1074" d="M1073.714 406.857c0-13.714-8.571-27.429-17.714-37.714l-192-226.286c-33.143-38.857-100.571-69.714-150.857-69.714h-621.714c-20.571 0-49.714 6.286-49.714 32 0 13.714 8.571 27.429 17.714 37.714l192 226.286c33.143 38.857 100.571 69.714 150.857 69.714h621.714c20.571 0 49.714-6.286 49.714-32zM877.714 603.428v-91.429h-475.429c-71.429 0-160-40.571-206.286-95.429l-195.429-229.714c0 4.571-0.571 9.714-0.571 14.286v548.571c0 70.286 57.714 128 128 128h182.857c70.286 0 128-57.714 128-128v-18.286h310.857c70.286 0 128-57.714 128-128z" />
<glyph unicode="&#xf081;" glyph-name="twitter-square" horiz-adv-x="878" d="M731.429 602.286c-21.714-9.714-44.571-16-69.143-19.429 25.143 14.857 44 38.857 53.143 66.857-23.429-13.714-49.143-24-76.571-29.143-21.714 23.429-53.143 37.714-87.429 37.714-66.286 0-120-53.714-120-120 0-9.143 0.571-18.857 2.857-27.429-100 5.143-188.571 52.571-248 125.714-10.286-17.714-16.571-38.857-16.571-60.571 0-41.714 19.429-78.286 52-100-20 0.571-38.857 6.286-57.143 14.857v-1.143c0-58.286 44-106.857 98.857-117.714-10.286-2.857-18.286-4.571-29.143-4.571-7.429 0-14.857 1.143-22.286 2.286 15.429-47.429 59.429-82.286 112-83.429-41.143-32-92.571-51.429-149.143-51.429-9.714 0-19.429 0.571-28.571 1.714 53.143-33.714 116-53.714 184-53.714 220.571 0 341.714 182.857 341.714 341.714 0 5.143 0 10.286-0.571 15.429 23.429 16.571 44 37.714 60 62.286zM877.714 713.143v-548.571c0-90.857-73.714-164.571-164.571-164.571h-548.571c-90.857 0-164.571 73.714-164.571 164.571v548.571c0 90.857 73.714 164.571 164.571 164.571h548.571c90.857 0 164.571-73.714 164.571-164.571z" />
<glyph unicode="&#xf082;" glyph-name="facebook-square" horiz-adv-x="878" d="M713.143 877.714c90.857 0 164.571-73.714 164.571-164.571v-548.571c0-90.857-73.714-164.571-164.571-164.571h-107.429v340h113.714l17.143 132.571h-130.857v84.571c0 38.286 10.286 64 65.714 64l69.714 0.571v118.286c-12 1.714-53.714 5.143-101.714 5.143-101.143 0-170.857-61.714-170.857-174.857v-97.714h-114.286v-132.571h114.286v-340h-304c-90.857 0-164.571 73.714-164.571 164.571v548.571c0 90.857 73.714 164.571 164.571 164.571h548.571z" />
<glyph unicode="&#xf08c;" glyph-name="linkedin-square" horiz-adv-x="878" d="M135.429 142.857h132v396.571h-132v-396.571zM276 661.714c-0.571 38.857-28.571 68.571-73.714 68.571s-74.857-29.714-74.857-68.571c0-37.714 28.571-68.571 73.143-68.571h0.571c46.286 0 74.857 30.857 74.857 68.571zM610.286 142.857h132v227.429c0 121.714-65.143 178.286-152 178.286-70.857 0-102.286-39.429-119.429-66.857h1.143v57.714h-132s1.714-37.143 0-396.571v0h132v221.714c0 11.429 0.571 23.429 4 32 9.714 23.429 31.429 48 68 48 47.429 0 66.286-36 66.286-89.714v-212zM877.714 713.143v-548.571c0-90.857-73.714-164.571-164.571-164.571h-548.571c-90.857 0-164.571 73.714-164.571 164.571v548.571c0 90.857 73.714 164.571 164.571 164.571h548.571c90.857 0 164.571-73.714 164.571-164.571z" />
<glyph unicode="&#xf08d;" glyph-name="thumb-tack" horiz-adv-x="658" d="M274.286 457.143v256c0 10.286-8 18.286-18.286 18.286s-18.286-8-18.286-18.286v-256c0-10.286 8-18.286 18.286-18.286s18.286 8 18.286 18.286zM658.286 256c0-20-16.571-36.571-36.571-36.571h-245.143l-29.143-276c-1.143-9.143-8.571-16.571-17.714-16.571h-0.571c-9.143 0-16.571 6.286-18.286 15.429l-43.429 277.143h-230.857c-20 0-36.571 16.571-36.571 36.571 0 93.714 70.857 182.857 146.286 182.857v292.571c-40 0-73.143 33.143-73.143 73.143s33.143 73.143 73.143 73.143h365.714c40 0 73.143-33.143 73.143-73.143s-33.143-73.143-73.143-73.143v-292.571c75.429 0 146.286-89.143 146.286-182.857z" />
<glyph unicode="&#xf08e;" glyph-name="external-link" d="M804.571 420.571v-182.857c0-90.857-73.714-164.571-164.571-164.571h-475.429c-90.857 0-164.571 73.714-164.571 164.571v475.429c0 90.857 73.714 164.571 164.571 164.571h402.286c10.286 0 18.286-8 18.286-18.286v-36.571c0-10.286-8-18.286-18.286-18.286h-402.286c-50.286 0-91.429-41.143-91.429-91.429v-475.429c0-50.286 41.143-91.429 91.429-91.429h475.429c50.286 0 91.429 41.143 91.429 91.429v182.857c0 10.286 8 18.286 18.286 18.286h36.571c10.286 0 18.286-8 18.286-18.286zM1024 914.286v-292.571c0-20-16.571-36.571-36.571-36.571-9.714 0-18.857 4-25.714 10.857l-100.571 100.571-372.571-372.571c-3.429-3.429-8.571-5.714-13.143-5.714s-9.714 2.286-13.143 5.714l-65.143 65.143c-3.429 3.429-5.714 8.571-5.714 13.143s2.286 9.714 5.714 13.143l372.571 372.571-100.571 100.571c-6.857 6.857-10.857 16-10.857 25.714 0 20 16.571 36.571 36.571 36.571h292.571c20 0 36.571-16.571 36.571-36.571z" />
<glyph unicode="&#xf092;" glyph-name="github-square" horiz-adv-x="878" d="M296.571 265.143v0c1.143 1.714 0.571 5.143-1.714 7.429-2.857 2.286-6.286 2.857-8 1.143-1.143-1.714-0.571-5.143 1.714-7.429 2.857-2.286 6.286-2.857 8-1.143zM280.571 288.571c-1.714 2.286-4.571 3.429-6.857 2.286-1.714-1.143-1.714-4.571 0-6.857 2.286-2.857 5.143-4 6.857-2.857v0c1.714 1.143 1.714 4.571 0 7.429zM257.143 311.428v0c0.571 1.143-0.571 3.429-2.857 4.571-1.714 0.571-4 0.571-4.571-1.143-1.143-1.714 0-3.429 2.286-4.571 2.286-0.571 4.571-0.571 5.143 1.143zM269.143 298.286v0c1.143 1.143 1.143 4-1.143 5.714-1.714 2.286-4.571 2.857-5.714 1.714-1.714-1.714-1.143-4 0.571-6.286 1.714-1.714 4.571-2.857 6.286-1.143zM318.286 255.428v0c0.571 2.286-1.714 5.143-5.143 6.286s-6.286 0-7.429-2.286c-0.571-2.286 1.714-5.143 5.143-6.286s6.286 0 7.429 2.286zM342.286 253.714v0c0 2.286-2.857 4.571-6.857 4.571-3.429 0-5.714-2.286-5.714-4.571s2.857-4.571 6.286-4.571 6.286 2.286 6.286 4.571zM364.571 257.714v0c-0.571 2.286-4 3.429-7.429 2.857s-5.714-2.857-5.143-5.143 3.429-4 6.857-3.429 5.714 3.429 5.714 5.714zM731.429 438.857c0 161.714-130.857 292.571-292.571 292.571s-292.571-130.857-292.571-292.571c0-129.143 84-238.857 200-277.714 14.857-2.857 20 6.286 20 14.286 0 6.857 0 29.714-0.571 54.286 0 0-81.143-17.714-98.286 34.857 0 0-13.143 33.714-32.571 42.286 0 0-26.286 18.286 2.286 18.286 0 0 28.571-2.286 44.571-30.286 25.714-45.143 68.571-32 85.143-24.571 2.857 18.857 10.286 32 18.857 39.429-65.143 7.429-133.714 32.571-133.714 144.571 0 32 11.429 57.714 30.286 78.286-2.857 7.429-13.143 37.143 2.857 77.714 24.571 7.429 80.571-30.286 80.571-30.286 23.429 6.857 48 9.714 73.143 9.714s49.714-2.857 73.143-9.714c0 0 56 37.714 80.571 30.286 16-40.571 5.714-70.286 2.857-77.714 18.857-20.571 30.286-46.286 30.286-78.286 0-112.571-68.571-137.143-133.714-144.571 10.286-9.143 20-26.857 20-54.286 0-38.857-0.571-70.286-0.571-80 0-8 5.143-17.143 20-14.286 116 38.857 200 148.571 200 277.714zM877.714 713.143v-548.571c0-90.857-73.714-164.571-164.571-164.571h-548.571c-90.857 0-164.571 73.714-164.571 164.571v548.571c0 90.857 73.714 164.571 164.571 164.571h548.571c90.857 0 164.571-73.714 164.571-164.571z" />
<glyph unicode="&#xf095;" glyph-name="phone" horiz-adv-x="805" d="M804.571 242.286c0-20.571-9.143-60.571-17.714-79.429-12-28-44-46.286-69.714-60.571-33.714-18.286-68-29.143-106.286-29.143-53.143 0-101.143 21.714-149.714 39.429-34.857 12.571-68.571 28-100 47.429-97.143 60-214.286 177.143-274.286 274.286-19.429 31.429-34.857 65.143-47.429 100-17.714 48.571-39.429 96.571-39.429 149.714 0 38.286 10.857 72.571 29.143 106.286 14.286 25.714 32.571 57.714 60.571 69.714 18.857 8.571 58.857 17.714 79.429 17.714 4 0 8 0 12-1.714 12-4 24.571-32 30.286-43.429 18.286-32.571 36-65.714 54.857-97.714 9.143-14.857 26.286-33.143 26.286-50.857 0-34.857-103.429-85.714-103.429-116.571 0-15.429 14.286-35.429 22.286-49.143 57.714-104 129.714-176 233.714-233.714 13.714-8 33.714-22.286 49.143-22.286 30.857 0 81.714 103.429 116.571 103.429 17.714 0 36-17.143 50.857-26.286 32-18.857 65.143-36.571 97.714-54.857 11.429-5.714 39.429-18.286 43.429-30.286 1.714-4 1.714-8 1.714-12z" />
<glyph unicode="&#xf099;" glyph-name="twitter" horiz-adv-x="951" d="M925.714 717.714c-25.143-36.571-56.571-69.143-92.571-95.429 0.571-8 0.571-16 0.571-24 0-244-185.714-525.143-525.143-525.143-104.571 0-201.714 30.286-283.429 82.857 14.857-1.714 29.143-2.286 44.571-2.286 86.286 0 165.714 29.143 229.143 78.857-81.143 1.714-149.143 54.857-172.571 128 11.429-1.714 22.857-2.857 34.857-2.857 16.571 0 33.143 2.286 48.571 6.286-84.571 17.143-148 91.429-148 181.143v2.286c24.571-13.714 53.143-22.286 83.429-23.429-49.714 33.143-82.286 89.714-82.286 153.714 0 34.286 9.143 65.714 25.143 93.143 90.857-112 227.429-185.143 380.571-193.143-2.857 13.714-4.571 28-4.571 42.286 0 101.714 82.286 184.571 184.571 184.571 53.143 0 101.143-22.286 134.857-58.286 41.714 8 81.714 23.429 117.143 44.571-13.714-42.857-42.857-78.857-81.143-101.714 37.143 4 73.143 14.286 106.286 28.571z" />
<glyph unicode="&#xf09a;" glyph-name="facebook, facebook-f" horiz-adv-x="602" d="M548 944v-150.857h-89.714c-70.286 0-83.429-33.714-83.429-82.286v-108h167.429l-22.286-169.143h-145.143v-433.714h-174.857v433.714h-145.714v169.143h145.714v124.571c0 144.571 88.571 223.429 217.714 223.429 61.714 0 114.857-4.571 130.286-6.857z" />
</font>
</defs>
</svg>
